<svg width="58" height="58" viewBox="0 0 58 58" fill="none" xmlns="http://www.w3.org/2000/svg">
<g filter="url(#filter0_d_297_2512)">
<rect x="4" width="50" height="50" rx="14" fill="url(#paint0_linear_297_2512)" shape-rendering="crispEdges"/>
<path fill-rule="evenodd" clip-rule="evenodd" d="M23.2947 22.4197C23.7015 22.0129 24.361 22.0129 24.7678 22.4197L29.5 27.1519L34.2322 22.4197C34.639 22.0129 35.2985 22.0129 35.7053 22.4197C36.1121 22.8265 36.1121 23.486 35.7053 23.8928L30.2366 29.3616C29.8298 29.7684 29.1702 29.7684 28.7634 29.3616L23.2947 23.8928C22.8879 23.486 22.8879 22.8265 23.2947 22.4197Z" fill="white"/>
<path fill-rule="evenodd" clip-rule="evenodd" d="M29.5 13C30.0753 13 30.5417 13.4664 30.5417 14.0417V28.625C30.5417 29.2003 30.0753 29.6667 29.5 29.6667C28.9247 29.6667 28.4583 29.2003 28.4583 28.625V14.0417C28.4583 13.4664 28.9247 13 29.5 13Z" fill="white"/>
<path fill-rule="evenodd" clip-rule="evenodd" d="M18.0417 27.5833C18.617 27.5833 19.0833 28.0497 19.0833 28.625V35.9167H39.9167V28.625C39.9167 28.0497 40.383 27.5833 40.9583 27.5833C41.5336 27.5833 42 28.0497 42 28.625V35.9167C42 36.4692 41.7805 36.9991 41.3898 37.3898C40.9991 37.7805 40.4692 38 39.9167 38H19.0833C18.5308 38 18.0009 37.7805 17.6102 37.3898C17.2195 36.9991 17 36.4692 17 35.9167V28.625C17 28.0497 17.4664 27.5833 18.0417 27.5833Z" fill="white"/>
</g>
<defs>
<filter id="filter0_d_297_2512" x="0" y="0" width="58" height="58" filterUnits="userSpaceOnUse" color-interpolation-filters="sRGB">
<feFlood flood-opacity="0" result="BackgroundImageFix"/>
<feColorMatrix in="SourceAlpha" type="matrix" values="0 0 0 0 0 0 0 0 0 0 0 0 0 0 0 0 0 0 127 0" result="hardAlpha"/>
<feOffset dy="4"/>
<feGaussianBlur stdDeviation="2"/>
<feComposite in2="hardAlpha" operator="out"/>
<feColorMatrix type="matrix" values="0 0 0 0 0 0 0 0 0 0 0 0 0 0 0 0 0 0 0.25 0"/>
<feBlend mode="normal" in2="BackgroundImageFix" result="effect1_dropShadow_297_2512"/>
<feBlend mode="normal" in="SourceGraphic" in2="effect1_dropShadow_297_2512" result="shape"/>
</filter>
<linearGradient id="paint0_linear_297_2512" x1="4" y1="25" x2="54" y2="25" gradientUnits="userSpaceOnUse">
<stop stop-color="#A66EE0"/>
<stop offset="1" stop-color="#735AE1"/>
</linearGradient>
</defs>
</svg>
