<svg width="68" height="68" viewBox="0 0 68 68" fill="none" xmlns="http://www.w3.org/2000/svg">
<g filter="url(#filter0_d_999_2197)">
<rect x="4" width="60" height="60" rx="14" fill="url(#paint0_linear_999_2197)" shape-rendering="crispEdges"/>
<path fill-rule="evenodd" clip-rule="evenodd" d="M33.7533 11.2449C34.2055 10.9184 34.7945 10.9184 35.2467 11.2449L51.4005 22.9116C51.775 23.1821 51.9999 23.6374 51.9999 24.125V43.0833C51.9999 43.8569 51.7162 44.5987 51.2113 45.1457C50.7064 45.6927 50.0216 46 49.3076 46H19.6924C18.9784 46 18.2936 45.6927 17.7887 45.1457C17.2838 44.5987 17.0001 43.8569 17.0001 43.0833V24.125C17.0001 23.6374 17.225 23.1821 17.5995 22.9116L33.7533 11.2449ZM19.6924 24.9055V43.0833H49.3076V24.9055L34.5 14.211L19.6924 24.9055Z" fill="white"/>
<path fill-rule="evenodd" clip-rule="evenodd" d="M32.6547 33.4918C33.0837 34.1496 32.9393 35.0596 32.3321 35.5244L19.5437 45.3134C18.9366 45.7782 18.0965 45.6217 17.6675 44.9639C17.2385 44.3062 17.3829 43.3962 17.9901 42.9314L30.7785 33.1423C31.3857 32.6775 32.2257 32.834 32.6547 33.4918Z" fill="white"/>
<path fill-rule="evenodd" clip-rule="evenodd" d="M36.3453 33.4918C36.7743 32.834 37.6143 32.6775 38.2215 33.1423L51.0099 42.9314C51.6171 43.3962 51.7615 44.3062 51.3325 44.9639C50.9035 45.6217 50.0634 45.7782 49.4563 45.3134L36.6679 35.5244C36.0607 35.0596 35.9163 34.1496 36.3453 33.4918Z" fill="white"/>
<path fill-rule="evenodd" clip-rule="evenodd" d="M17.2504 23.2781C17.6821 22.6224 18.5228 22.4701 19.128 22.9378L31.9863 32.875H37.0137L49.872 22.9378C50.4772 22.4701 51.3179 22.6224 51.7496 23.2781C52.1814 23.9338 52.0408 24.8445 51.4355 25.3122L38.2265 35.5205C37.9983 35.6969 37.725 35.7917 37.4447 35.7917H31.5553C31.275 35.7917 31.0017 35.6969 30.7735 35.5205L17.5645 25.3122C16.9592 24.8445 16.8186 23.9338 17.2504 23.2781Z" fill="white"/>
</g>
<defs>
<filter id="filter0_d_999_2197" x="0" y="0" width="68" height="68" filterUnits="userSpaceOnUse" color-interpolation-filters="sRGB">
<feFlood flood-opacity="0" result="BackgroundImageFix"/>
<feColorMatrix in="SourceAlpha" type="matrix" values="0 0 0 0 0 0 0 0 0 0 0 0 0 0 0 0 0 0 127 0" result="hardAlpha"/>
<feOffset dy="4"/>
<feGaussianBlur stdDeviation="2"/>
<feComposite in2="hardAlpha" operator="out"/>
<feColorMatrix type="matrix" values="0 0 0 0 0 0 0 0 0 0 0 0 0 0 0 0 0 0 0.25 0"/>
<feBlend mode="normal" in2="BackgroundImageFix" result="effect1_dropShadow_999_2197"/>
<feBlend mode="normal" in="SourceGraphic" in2="effect1_dropShadow_999_2197" result="shape"/>
</filter>
<linearGradient id="paint0_linear_999_2197" x1="4" y1="30" x2="64" y2="30" gradientUnits="userSpaceOnUse">
<stop stop-color="#A66EE0"/>
<stop offset="1" stop-color="#735AE1"/>
</linearGradient>
</defs>
</svg>
