<svg width="60" height="40" viewBox="0 0 60 40" fill="none" xmlns="http://www.w3.org/2000/svg">
<path fill-rule="evenodd" clip-rule="evenodd" d="M0.401129 1.0915C0.14354 1.50082 2.3918e-05 1.99018 2.3918e-05 2.50001C-0.00035613 2.01338 0.129904 1.52204 0.401129 1.0915ZM2.3918e-05 2.5292L0 2.51036L2.3918e-05 2.50001V2.5292ZM59.9997 2.5291C59.9997 2.52284 59.9997 2.51659 59.9997 2.51034C59.9997 2.50764 59.9997 2.51304 59.9997 2.51034L59.9997 2.5291ZM59.9997 2.50001C59.9997 1.99018 59.8562 1.50092 59.5986 1.09159C59.8698 1.52214 60 2.01338 59.9997 2.50001Z" fill="black"/>
<path fill-rule="evenodd" clip-rule="evenodd" d="M0.401129 1.0915C0.14354 1.50082 2.3918e-05 1.99018 2.3918e-05 2.50001C-0.00035613 2.01338 0.129904 1.52204 0.401129 1.0915ZM2.3918e-05 2.5292L0 2.51036L2.3918e-05 2.50001V2.5292ZM59.9997 2.5291C59.9997 2.52284 59.9997 2.51659 59.9997 2.51034C59.9997 2.50764 59.9997 2.51304 59.9997 2.51034L59.9997 2.5291ZM59.9997 2.50001C59.9997 1.99018 59.8562 1.50092 59.5986 1.09159C59.8698 1.52214 60 2.01338 59.9997 2.50001Z" fill="black"/>
<path fill-rule="evenodd" clip-rule="evenodd" d="M6.37147 2.56967L6.46793 2.5H6.28132L6.37147 2.56967Z" fill="black"/>
<path fill-rule="evenodd" clip-rule="evenodd" d="M53.5318 2.5L53.6282 2.56967L53.7184 2.5H53.5318Z" fill="black"/>
<path fill-rule="evenodd" clip-rule="evenodd" d="M59.9997 2.5291L59.9995 2.54004L59.9997 2.50001V2.5291Z" fill="black"/>
<path fill-rule="evenodd" clip-rule="evenodd" d="M2.3918e-05 2.50001C2.3918e-05 1.99018 0.14354 1.50082 0.401129 1.0915C0.423414 1.05609 0.446553 1.02128 0.470527 0.987109C1.222 -0.0851033 2.62938 -0.322321 3.64788 0.464803L6.28132 2.5L6.37147 2.56967L6.46793 2.5H53.5318L53.6282 2.56967L53.7184 2.5L56.3518 0.464803C57.3731 -0.324513 58.7855 -0.0837739 59.5354 0.996088C59.5473 1.01323 59.5591 1.03058 59.5706 1.04814C59.5801 1.06256 59.5895 1.07704 59.5986 1.09159C59.8562 1.50092 59.9997 1.99018 59.9997 2.50001L59.9995 2.54004L59.9997 2.5291V35C59.9997 36.3261 59.5134 37.5979 58.6479 38.5355C57.7823 39.4732 56.6084 40 55.3843 40H4.61538C3.39132 40 2.21738 39.4732 1.35183 38.5355C0.486283 37.5979 2.3918e-05 36.3261 2.3918e-05 35V2.5292V2.50001ZM55.3843 7.5V7.35439L55.1959 7.5L39.0341 19.9903L55.3843 32.5057V7.5ZM34.3091 17.5L47.2486 7.5H12.7511L25.6906 17.5H34.3091ZM50.6448 35H9.35487L25.6848 22.5H34.3149L50.6448 35ZM4.61538 7.5V32.5057L20.9655 19.9903L4.80379 7.5L4.61538 7.35439V7.5Z" fill="black"/>
<path d="M34.3091 17.5L47.2486 7.5H12.7511L25.6906 17.5H34.3091Z" fill="#735AE1"/>
<path d="M4.61538 7.5V32.5057L20.9655 19.9903L4.80379 7.5H4.61538Z" fill="white"/>
<path d="M50.6448 35H9.35487L25.6848 22.5H34.3149L50.6448 35Z" fill="white"/>
<path d="M55.1959 7.5L39.0341 19.9903L55.3843 32.5057V7.5H55.1959Z" fill="white"/>
</svg>
