<svg width="60" height="28" viewBox="0 0 60 28" fill="none" xmlns="http://www.w3.org/2000/svg">
<path fill-rule="evenodd" clip-rule="evenodd" d="M59.5978 6.40973C59.5923 6.41833 59.5869 6.42689 59.5813 6.43542C59.5778 6.44092 59.5742 6.4464 59.5706 6.45187L59.5813 6.43542L59.5978 6.40973Z" fill="black"/>
<path fill-rule="evenodd" clip-rule="evenodd" d="M59.5813 6.43542L59.5978 6.40973C59.8559 6.00014 59.9996 5.51038 59.9996 5L59.9995 4.95998C59.9898 3.64836 59.5047 2.39272 58.6478 1.46446C57.7823 0.526775 56.6083 0 55.3843 0H4.61536C3.39129 0 2.21736 0.526781 1.35181 1.46446C0.486259 2.40215 0 3.67392 0 5C0 5.83588 0.385616 6.61646 1.02761 7.08013L28.7197 27.0801C29.4949 27.64 30.5047 27.64 31.2799 27.0801L58.9279 7.11201L58.9717 7.08034C59.0013 7.05901 59.0306 7.03679 59.059 7.01414C59.226 6.88115 59.3739 6.7259 59.5 6.55355C59.5098 6.54011 59.5196 6.52656 59.5291 6.51291C59.5433 6.49278 59.5571 6.47243 59.5706 6.45187L59.5813 6.43542ZM53.5317 5H6.46791L29.9998 21.9954L53.5317 5Z" fill="black"/>
<path d="M53.5317 5H6.46791L29.9998 21.9954L53.5317 5Z" fill="white"/>
</svg>
