<svg width="104" height="58" viewBox="0 0 104 58" fill="none" xmlns="http://www.w3.org/2000/svg">
<g filter="url(#filter0_d_794_2572)">
<rect x="4" width="96" height="50" rx="14" fill="url(#paint0_linear_794_2572)"/>
<path d="M25.2223 29.58H42.0023V31.74H25.2223V29.58ZM32.2623 26.06H34.9023V30.44H32.2623V26.06ZM27.1223 16.44H40.1023V22.62H29.7823V25.72H27.1423V20.54H37.4623V18.56H27.1223V16.44ZM27.1423 24.68H40.5223V26.8H27.1423V24.68ZM45.3408 16.94H57.0608V19.06H45.3408V16.94ZM43.6208 29.2H60.3808V31.36H43.6208V29.2ZM55.6608 16.94H58.3208V19.14C58.3208 20.0067 58.3074 20.8867 58.2808 21.78C58.2674 22.6733 58.2141 23.6267 58.1208 24.64C58.0408 25.6533 57.8808 26.8 57.6408 28.08L54.9808 27.84C55.2208 26.6533 55.3808 25.56 55.4608 24.56C55.5541 23.56 55.6074 22.62 55.6208 21.74C55.6474 20.8467 55.6608 19.98 55.6608 19.14V16.94ZM74.7392 15.26H77.3992V28.56H74.7392V15.26ZM65.0592 31.32H77.8792V33.46H65.0592V31.32ZM65.0592 27.24H67.7192V32.2H65.0592V27.24ZM67.3192 16.44C68.2659 16.44 69.1192 16.64 69.8792 17.04C70.6392 17.44 71.2392 17.9933 71.6792 18.7C72.1326 19.4067 72.3592 20.22 72.3592 21.14C72.3592 22.0333 72.1326 22.84 71.6792 23.56C71.2392 24.2667 70.6392 24.8267 69.8792 25.24C69.1192 25.64 68.2659 25.84 67.3192 25.84C66.3726 25.84 65.5192 25.64 64.7592 25.24C63.9992 24.8267 63.3926 24.2667 62.9392 23.56C62.4992 22.84 62.2792 22.0333 62.2792 21.14C62.2792 20.22 62.4992 19.4067 62.9392 18.7C63.3926 17.9933 63.9992 17.44 64.7592 17.04C65.5192 16.64 66.3726 16.44 67.3192 16.44ZM67.3192 18.72C66.8659 18.72 66.4526 18.82 66.0792 19.02C65.7059 19.2067 65.4126 19.48 65.1992 19.84C64.9859 20.1867 64.8792 20.62 64.8792 21.14C64.8792 21.6333 64.9859 22.06 65.1992 22.42C65.4126 22.7667 65.7059 23.04 66.0792 23.24C66.4526 23.4267 66.8659 23.52 67.3192 23.52C67.7726 23.52 68.1859 23.4267 68.5592 23.24C68.9326 23.04 69.2259 22.7667 69.4392 22.42C69.6526 22.06 69.7592 21.6333 69.7592 21.14C69.7592 20.62 69.6526 20.1867 69.4392 19.84C69.2259 19.48 68.9326 19.2067 68.5592 19.02C68.1859 18.82 67.7726 18.72 67.3192 18.72Z" fill="white"/>
</g>
<defs>
<filter id="filter0_d_794_2572" x="0" y="0" width="104" height="58" filterUnits="userSpaceOnUse" color-interpolation-filters="sRGB">
<feFlood flood-opacity="0" result="BackgroundImageFix"/>
<feColorMatrix in="SourceAlpha" type="matrix" values="0 0 0 0 0 0 0 0 0 0 0 0 0 0 0 0 0 0 127 0" result="hardAlpha"/>
<feOffset dy="4"/>
<feGaussianBlur stdDeviation="2"/>
<feComposite in2="hardAlpha" operator="out"/>
<feColorMatrix type="matrix" values="0 0 0 0 0 0 0 0 0 0 0 0 0 0 0 0 0 0 0.25 0"/>
<feBlend mode="normal" in2="BackgroundImageFix" result="effect1_dropShadow_794_2572"/>
<feBlend mode="normal" in="SourceGraphic" in2="effect1_dropShadow_794_2572" result="shape"/>
</filter>
<linearGradient id="paint0_linear_794_2572" x1="4" y1="25" x2="100" y2="25" gradientUnits="userSpaceOnUse">
<stop stop-color="#A66EE0"/>
<stop offset="1" stop-color="#735AE1"/>
</linearGradient>
</defs>
</svg>
