<svg width="122" height="58" viewBox="0 0 122 58" fill="none" xmlns="http://www.w3.org/2000/svg">
<g filter="url(#filter0_d_794_2578)">
<rect x="4" width="114" height="50" rx="14" fill="url(#paint0_linear_794_2578)"/>
<path d="M29.7031 26.52H32.3631V29.52H29.7031V26.52ZM37.8031 15.26H40.4631V33.78H37.8031V15.26ZM25.4231 30.7L25.1031 28.54C26.2231 28.54 27.4431 28.5333 28.7631 28.52C30.0831 28.5067 31.4365 28.46 32.8231 28.38C34.2231 28.3 35.5698 28.1733 36.8631 28L37.0431 29.92C35.6965 30.16 34.3365 30.34 32.9631 30.46C31.6031 30.5667 30.2831 30.6333 29.0031 30.66C27.7231 30.6867 26.5298 30.7 25.4231 30.7ZM25.4631 17.3H36.6231V19.38H25.4631V17.3ZM31.0431 20.1C31.9498 20.1 32.7498 20.2467 33.4431 20.54C34.1365 20.8333 34.6765 21.24 35.0631 21.76C35.4631 22.28 35.6631 22.8867 35.6631 23.58C35.6631 24.26 35.4631 24.8667 35.0631 25.4C34.6765 25.92 34.1365 26.3267 33.4431 26.62C32.7498 26.9133 31.9498 27.06 31.0431 27.06C30.1365 27.06 29.3365 26.9133 28.6431 26.62C27.9498 26.3267 27.4031 25.92 27.0031 25.4C26.6165 24.8667 26.4231 24.26 26.4231 23.58C26.4231 22.8867 26.6165 22.28 27.0031 21.76C27.4031 21.24 27.9498 20.8333 28.6431 20.54C29.3365 20.2467 30.1365 20.1 31.0431 20.1ZM31.0431 22.1C30.4298 22.1 29.9298 22.2333 29.5431 22.5C29.1565 22.7533 28.9631 23.1133 28.9631 23.58C28.9631 24.06 29.1565 24.4267 29.5431 24.68C29.9298 24.9333 30.4298 25.06 31.0431 25.06C31.6565 25.06 32.1565 24.9333 32.5431 24.68C32.9298 24.4267 33.1231 24.06 33.1231 23.58C33.1231 23.1133 32.9298 22.7533 32.5431 22.5C32.1565 22.2333 31.6565 22.1 31.0431 22.1ZM29.7031 15.32H32.3831V18.5H29.7031V15.32ZM48.2416 24.76H50.9016V28.8H48.2416V24.76ZM56.3416 15.24H59.0016V29.28H56.3416V15.24ZM45.6616 31.32H59.4216V33.46H45.6616V31.32ZM45.6616 27.94H48.3216V31.9H45.6616V27.94ZM43.6816 25.56L43.3416 23.44C44.4749 23.4267 45.7082 23.4133 47.0416 23.4C48.3749 23.3733 49.7349 23.32 51.1216 23.24C52.5082 23.16 53.8416 23.04 55.1216 22.88L55.3016 24.78C53.9816 25.0067 52.6349 25.18 51.2616 25.3C49.9016 25.4067 48.5749 25.4733 47.2816 25.5C45.9882 25.5267 44.7882 25.5467 43.6816 25.56ZM52.8616 26H56.9416V27.82H52.8616V26ZM49.3016 15.88C50.2082 15.88 51.0082 16.02 51.7016 16.3C52.3949 16.58 52.9349 16.9667 53.3216 17.46C53.7216 17.9533 53.9216 18.5333 53.9216 19.2C53.9216 19.8533 53.7216 20.4333 53.3216 20.94C52.9349 21.4333 52.3949 21.8133 51.7016 22.08C51.0082 22.3467 50.2082 22.48 49.3016 22.48C48.3949 22.48 47.5882 22.3467 46.8816 22.08C46.1882 21.8133 45.6482 21.4333 45.2616 20.94C44.8749 20.4333 44.6816 19.8533 44.6816 19.2C44.6816 18.5333 44.8749 17.9533 45.2616 17.46C45.6482 16.9667 46.1882 16.58 46.8816 16.3C47.5882 16.02 48.3949 15.88 49.3016 15.88ZM49.3016 17.82C48.6882 17.82 48.1816 17.9333 47.7816 18.16C47.3949 18.3867 47.2016 18.7333 47.2016 19.2C47.2016 19.64 47.3949 19.98 47.7816 20.22C48.1816 20.4467 48.6882 20.56 49.3016 20.56C49.9282 20.56 50.4282 20.4467 50.8016 20.22C51.1882 19.98 51.3816 19.64 51.3816 19.2C51.3816 18.8933 51.2949 18.64 51.1216 18.44C50.9482 18.24 50.7082 18.0867 50.4016 17.98C50.0949 17.8733 49.7282 17.82 49.3016 17.82ZM73.64 15.22H76.32V33.74H73.64V15.22ZM75.64 22.32H78.9V24.5H75.64V22.32ZM68.78 17.14H71.4C71.4 18.9933 71.1333 20.7467 70.6 22.4C70.08 24.0533 69.2133 25.5733 68 26.96C66.8 28.3333 65.1733 29.5333 63.12 30.56L61.62 28.54C63.2467 27.7 64.5867 26.7533 65.64 25.7C66.7067 24.6467 67.4933 23.4533 68 22.12C68.52 20.7733 68.78 19.2733 68.78 17.62V17.14ZM62.64 17.14H70.16V19.28H62.64V17.14ZM92.9384 15.26H95.5984V25.2H92.9384V15.26ZM83.2984 26.02H85.9184V27.74H92.9584V26.02H95.5984V33.58H83.2984V26.02ZM85.9184 29.78V31.46H92.9584V29.78H85.9184ZM85.5184 16.02C86.4784 16.02 87.3384 16.2067 88.0984 16.58C88.8584 16.9533 89.4584 17.4667 89.8984 18.12C90.3384 18.7733 90.5584 19.5267 90.5584 20.38C90.5584 21.2333 90.3384 21.9933 89.8984 22.66C89.4584 23.3133 88.8584 23.8267 88.0984 24.2C87.3384 24.5733 86.4784 24.76 85.5184 24.76C84.5584 24.76 83.6984 24.5733 82.9384 24.2C82.1784 23.8267 81.5784 23.3133 81.1384 22.66C80.6984 21.9933 80.4784 21.2333 80.4784 20.38C80.4784 19.5267 80.6984 18.7733 81.1384 18.12C81.5784 17.4667 82.1784 16.9533 82.9384 16.58C83.6984 16.2067 84.5584 16.02 85.5184 16.02ZM85.5184 18.2C85.0518 18.2 84.6318 18.2867 84.2584 18.46C83.8851 18.6333 83.5918 18.8867 83.3784 19.22C83.1784 19.54 83.0784 19.9267 83.0784 20.38C83.0784 20.8467 83.1784 21.2467 83.3784 21.58C83.5918 21.9 83.8851 22.1467 84.2584 22.32C84.6318 22.48 85.0518 22.56 85.5184 22.56C85.9851 22.56 86.3984 22.48 86.7584 22.32C87.1318 22.1467 87.4251 21.9 87.6384 21.58C87.8518 21.2467 87.9584 20.8467 87.9584 20.38C87.9584 19.9267 87.8518 19.54 87.6384 19.22C87.4251 18.8867 87.1318 18.6333 86.7584 18.46C86.3984 18.2867 85.9851 18.2 85.5184 18.2Z" fill="white"/>
</g>
<defs>
<filter id="filter0_d_794_2578" x="0" y="0" width="122" height="58" filterUnits="userSpaceOnUse" color-interpolation-filters="sRGB">
<feFlood flood-opacity="0" result="BackgroundImageFix"/>
<feColorMatrix in="SourceAlpha" type="matrix" values="0 0 0 0 0 0 0 0 0 0 0 0 0 0 0 0 0 0 127 0" result="hardAlpha"/>
<feOffset dy="4"/>
<feGaussianBlur stdDeviation="2"/>
<feComposite in2="hardAlpha" operator="out"/>
<feColorMatrix type="matrix" values="0 0 0 0 0 0 0 0 0 0 0 0 0 0 0 0 0 0 0.25 0"/>
<feBlend mode="normal" in2="BackgroundImageFix" result="effect1_dropShadow_794_2578"/>
<feBlend mode="normal" in="SourceGraphic" in2="effect1_dropShadow_794_2578" result="shape"/>
</filter>
<linearGradient id="paint0_linear_794_2578" x1="4" y1="25" x2="118" y2="25" gradientUnits="userSpaceOnUse">
<stop stop-color="#A66EE0"/>
<stop offset="1" stop-color="#735AE1"/>
</linearGradient>
</defs>
</svg>
