<svg width="124" height="48" viewBox="0 0 124 48" fill="none" xmlns="http://www.w3.org/2000/svg">
<g filter="url(#filter0_d_791_2488)">
<rect x="4" width="116" height="40" rx="14" fill="url(#paint0_linear_791_2488)"/>
<path d="M23.9662 14.276H25.4922V16.152C25.4922 16.992 25.4175 17.7993 25.2682 18.574C25.1189 19.3393 24.8902 20.058 24.5822 20.73C24.2835 21.3927 23.8962 21.9807 23.4202 22.494C22.9535 22.998 22.3982 23.3993 21.7542 23.698L20.6482 22.158C21.2175 21.906 21.7075 21.5747 22.1182 21.164C22.5382 20.744 22.8835 20.268 23.1542 19.736C23.4249 19.1947 23.6255 18.6207 23.7562 18.014C23.8962 17.4073 23.9662 16.7867 23.9662 16.152V14.276ZM24.3302 14.276H25.8422V16.152C25.8422 16.7587 25.9075 17.3513 26.0382 17.93C26.1689 18.5087 26.3649 19.0547 26.6262 19.568C26.8969 20.0813 27.2329 20.5387 27.6342 20.94C28.0449 21.332 28.5255 21.6447 29.0762 21.878L27.9982 23.39C27.3729 23.1007 26.8269 22.7133 26.3602 22.228C25.9029 21.7427 25.5249 21.1827 25.2262 20.548C24.9275 19.904 24.7035 19.2133 24.5542 18.476C24.4049 17.7293 24.3302 16.9547 24.3302 16.152V14.276ZM29.7062 13.254H31.5682V26.26H29.7062V13.254ZM36.5791 14.598H38.1051V15.41C38.1051 16.2313 37.9698 17.006 37.6991 17.734C37.4378 18.462 37.0364 19.1013 36.4951 19.652C35.9631 20.1933 35.2864 20.5993 34.4651 20.87L33.4991 19.428C34.2178 19.1853 34.8011 18.854 35.2491 18.434C35.7064 18.014 36.0424 17.5427 36.2571 17.02C36.4718 16.488 36.5791 15.9513 36.5791 15.41V14.598ZM36.9431 14.598H38.4551V15.41C38.4551 15.914 38.5578 16.418 38.7631 16.922C38.9684 17.4167 39.2904 17.8647 39.7291 18.266C40.1771 18.658 40.7464 18.966 41.4371 19.19L40.4991 20.646C39.6871 20.3847 39.0198 19.988 38.4971 19.456C37.9744 18.924 37.5824 18.3127 37.3211 17.622C37.0691 16.922 36.9431 16.1847 36.9431 15.41V14.598ZM33.9891 14.038H41.0031V15.522H33.9891V14.038ZM42.0251 13.282H43.8871V21.08H42.0251V13.282ZM43.3831 16.404H45.6091V17.944H43.3831V16.404ZM35.2351 21.654H43.8871V26.246H42.0251V23.138H35.2351V21.654ZM54.876 13.282H56.738V26.246H54.876V13.282ZM56.318 18.336H58.6V19.876H56.318V18.336ZM46.504 15.186H54.064V16.67H46.504V15.186ZM50.312 17.412C50.9373 17.412 51.4973 17.5473 51.992 17.818C52.4867 18.0793 52.874 18.4387 53.154 18.896C53.4433 19.3533 53.588 19.8853 53.588 20.492C53.588 21.0987 53.4433 21.6353 53.154 22.102C52.874 22.5593 52.4867 22.9233 51.992 23.194C51.5067 23.4553 50.9467 23.586 50.312 23.586C49.6867 23.586 49.122 23.4553 48.618 23.194C48.1233 22.9233 47.7313 22.5593 47.442 22.102C47.162 21.6353 47.022 21.0987 47.022 20.492C47.022 19.8853 47.162 19.3533 47.442 18.896C47.7313 18.4387 48.1233 18.0793 48.618 17.818C49.122 17.5473 49.6867 17.412 50.312 17.412ZM50.312 18.924C50.0133 18.924 49.752 18.9847 49.528 19.106C49.304 19.2273 49.1267 19.4047 48.996 19.638C48.8653 19.8713 48.8 20.156 48.8 20.492C48.8 20.8187 48.8653 21.1033 48.996 21.346C49.1267 21.5793 49.304 21.7613 49.528 21.892C49.752 22.0133 50.0133 22.074 50.312 22.074C50.6013 22.074 50.858 22.0133 51.082 21.892C51.306 21.7613 51.4833 21.5793 51.614 21.346C51.7447 21.1033 51.81 20.8187 51.81 20.492C51.81 20.156 51.7447 19.8713 51.614 19.638C51.4833 19.4047 51.306 19.2273 51.082 19.106C50.858 18.9847 50.6013 18.924 50.312 18.924ZM49.36 13.492H51.236V15.76H49.36V13.492ZM68.3849 13.268H70.2469V26.232H68.3849V13.268ZM64.5629 14.612H66.3969C66.3969 15.6013 66.2989 16.5487 66.1029 17.454C65.9162 18.35 65.5989 19.1947 65.1509 19.988C64.7122 20.7813 64.1056 21.5187 63.3309 22.2C62.5656 22.872 61.6089 23.488 60.4609 24.048L59.4809 22.578C60.7316 21.9713 61.7256 21.304 62.4629 20.576C63.2096 19.8387 63.7462 19.008 64.0729 18.084C64.3996 17.1507 64.5629 16.1053 64.5629 14.948V14.612ZM60.1809 14.612H65.4309V16.096H60.1809V14.612Z" fill="white"/>
<g clip-path="url(#clip0_791_2488)">
<path fill-rule="evenodd" clip-rule="evenodd" d="M91.205 25.7885C90.9317 25.5064 90.9317 25.0491 91.205 24.7671L96.3101 19.5L91.205 14.2329C90.9317 13.9509 90.9317 13.4936 91.205 13.2115C91.4784 12.9295 91.9216 12.9295 92.195 13.2115L97.795 18.9893C98.0683 19.2714 98.0683 19.7286 97.795 20.0107L92.195 25.7885C91.9216 26.0705 91.4784 26.0705 91.205 25.7885Z" fill="white"/>
</g>
</g>
<defs>
<filter id="filter0_d_791_2488" x="0" y="0" width="124" height="48" filterUnits="userSpaceOnUse" color-interpolation-filters="sRGB">
<feFlood flood-opacity="0" result="BackgroundImageFix"/>
<feColorMatrix in="SourceAlpha" type="matrix" values="0 0 0 0 0 0 0 0 0 0 0 0 0 0 0 0 0 0 127 0" result="hardAlpha"/>
<feOffset dy="4"/>
<feGaussianBlur stdDeviation="2"/>
<feComposite in2="hardAlpha" operator="out"/>
<feColorMatrix type="matrix" values="0 0 0 0 0 0 0 0 0 0 0 0 0 0 0 0 0 0 0.25 0"/>
<feBlend mode="normal" in2="BackgroundImageFix" result="effect1_dropShadow_791_2488"/>
<feBlend mode="normal" in="SourceGraphic" in2="effect1_dropShadow_791_2488" result="shape"/>
</filter>
<linearGradient id="paint0_linear_791_2488" x1="4" y1="20" x2="120" y2="20" gradientUnits="userSpaceOnUse">
<stop stop-color="#A66EE0"/>
<stop offset="1" stop-color="#735AE1"/>
</linearGradient>
<clipPath id="clip0_791_2488">
<rect width="20" height="20" fill="white" transform="translate(84 10)"/>
</clipPath>
</defs>
</svg>
