<svg width="60" height="61" viewBox="0 0 60 61" fill="none" xmlns="http://www.w3.org/2000/svg">
<rect y="0.5" width="60" height="60" rx="14" fill="#8A8C90"/>
<path d="M34.9681 17.816C34.9681 16.8635 34.6857 15.9324 34.1565 15.1404C33.6273 14.3484 32.8752 13.7311 31.9951 13.3666C31.1151 13.0021 30.1468 12.9067 29.2126 13.0925C28.2784 13.2784 27.4202 13.737 26.7467 14.4106C26.0732 15.0841 25.6145 15.9422 25.4287 16.8765C25.2428 17.8107 25.3382 18.779 25.7027 19.659C26.0672 20.539 26.6845 21.2912 27.4765 21.8204C28.2685 22.3496 29.1996 22.632 30.1521 22.632C31.4294 22.632 32.6544 22.1246 33.5576 21.2214C34.4607 20.3183 34.9681 19.0933 34.9681 17.816ZM30.1521 20.224C29.6759 20.224 29.2103 20.0828 28.8143 19.8182C28.4183 19.5536 28.1097 19.1775 27.9274 18.7375C27.7452 18.2975 27.6975 17.8133 27.7904 17.3462C27.8833 16.8791 28.1126 16.4501 28.4494 16.1133C28.7862 15.7765 29.2152 15.5472 29.6824 15.4543C30.1495 15.3614 30.6336 15.4091 31.0736 15.5913C31.5136 15.7736 31.8897 16.0822 32.1543 16.4782C32.4189 16.8742 32.5601 17.3398 32.5601 17.816C32.5601 18.4547 32.3064 19.0671 31.8548 19.5187C31.4033 19.9703 30.7908 20.224 30.1521 20.224ZM45.7289 24.9964C45.5919 24.3221 45.2236 23.7168 44.6878 23.2851C44.152 22.8534 43.4822 22.6224 42.7942 22.632H17.5101C16.8239 22.632 16.1584 22.8664 15.6237 23.2964C15.089 23.7264 14.7172 24.3262 14.5701 24.9964C14.4229 25.6666 14.5091 26.367 14.8144 26.9814C15.1198 27.5959 15.6259 28.0876 16.2489 28.3751H16.2685L23.9064 31.7388L20.7459 43.7367C20.4152 44.4651 20.3874 45.2951 20.6686 46.0441C20.9499 46.793 21.5171 47.3995 22.2456 47.7302C22.974 48.0609 23.804 48.0887 24.553 47.8074C25.3019 47.5262 25.9084 46.9589 26.2391 46.2305L30.1521 39.4775L34.0651 46.2305C34.4129 46.9279 35.0175 47.4632 35.7519 47.7239C36.4863 47.9846 37.2932 47.9503 38.0028 47.6283C38.7125 47.3062 39.2695 46.7215 39.5568 45.9971C39.8441 45.2727 39.8393 44.4651 39.5434 43.7442L36.3828 31.7463L44.0207 28.3826H44.0403C44.6733 28.1048 45.189 27.6138 45.4975 26.9951C45.806 26.3765 45.8879 25.6692 45.7289 24.9964ZM43.05 26.1853L34.482 29.9569C34.2197 30.0725 34.0073 30.2778 33.8828 30.536C33.7584 30.7943 33.7302 31.0884 33.8033 31.3656L37.2452 44.4546C37.2628 44.5247 37.2875 44.5927 37.319 44.6578C37.3695 44.7658 37.3868 44.8863 37.3687 45.0042C37.3505 45.122 37.2978 45.2319 37.2172 45.3197C37.1366 45.4076 37.0317 45.4695 36.9159 45.4977C36.8 45.5259 36.6784 45.519 36.5665 45.478C36.4168 45.4231 36.295 45.311 36.2278 45.1664C36.2126 45.1339 36.1955 45.1022 36.1767 45.0716L31.1936 36.4781C31.0878 36.2956 30.9358 36.1442 30.7531 36.0389C30.5703 35.9336 30.3631 35.8782 30.1521 35.8782C29.9412 35.8782 29.734 35.9336 29.5512 36.0389C29.3684 36.1442 29.2165 36.2956 29.1107 36.4781L24.1321 45.0641C24.1133 45.0947 24.0962 45.1264 24.0809 45.1589C24.0138 45.3035 23.892 45.4155 23.7423 45.4705C23.6304 45.5115 23.5088 45.5184 23.3929 45.4902C23.277 45.462 23.1722 45.4001 23.0915 45.3122C23.0109 45.2243 22.9582 45.1145 22.9401 44.9967C22.922 44.8788 22.9393 44.7582 22.9898 44.6502C23.0213 44.5852 23.046 44.5171 23.0636 44.4471L26.501 31.361C26.5741 31.0839 26.5458 30.7897 26.4214 30.5315C26.297 30.2733 26.0845 30.0679 25.8222 29.9524L17.2542 26.1853C17.1313 26.1267 17.0318 26.028 16.9722 25.9054C16.9126 25.7829 16.8963 25.6438 16.926 25.5108C16.9557 25.3778 17.0296 25.2588 17.1358 25.1733C17.2419 25.0878 17.3738 25.0408 17.5101 25.04H42.7942C42.9308 25.0398 43.0635 25.086 43.1704 25.1712C43.2773 25.2563 43.352 25.3753 43.3823 25.5086C43.4126 25.6418 43.3966 25.7814 43.3371 25.9044C43.2775 26.0274 43.1779 26.1265 43.0545 26.1853H43.05Z" fill="white"/>
<path d="M48.3986 12.0156C48.5861 12.2031 48.6914 12.4575 48.6914 12.7227C48.6914 12.9879 48.5861 13.2423 48.3986 13.4298L13.3089 48.8947C13.1214 49.0823 12.867 49.1876 12.6018 49.1876C12.3366 49.1876 12.0823 49.0823 11.8947 48.8947C11.7072 48.7072 11.6018 48.4528 11.6018 48.1876C11.6018 47.9224 11.7072 47.668 11.8947 47.4805L46.9843 12.0156C47.1719 11.8281 47.4262 11.7227 47.6914 11.7227C47.9567 11.7227 48.211 11.8281 48.3986 12.0156Z" fill="white"/>
</svg>
