<svg width="588" height="633" viewBox="0 0 588 633" fill="none" xmlns="http://www.w3.org/2000/svg">
<g filter="url(#filter0_di_436_1749)">
<rect x="4" width="580" height="625" rx="14" fill="white"/>
<rect x="4.5" y="0.5" width="579" height="624" rx="13.5" stroke="#8A8C90"/>
<path d="M81.003 44.48H82.663V58.04H81.003V44.48ZM82.143 50.42H85.323V51.8H82.143V50.42ZM68.663 46.68H79.343V48.02H68.663V46.68ZM74.003 49C74.8564 49 75.6097 49.1467 76.263 49.44C76.9164 49.72 77.423 50.1133 77.783 50.62C78.143 51.1133 78.323 51.7 78.323 52.38C78.323 53.06 78.143 53.6533 77.783 54.16C77.423 54.6533 76.9164 55.04 76.263 55.32C75.6097 55.6 74.8564 55.74 74.003 55.74C73.1497 55.74 72.3964 55.6 71.743 55.32C71.0897 55.04 70.5764 54.6533 70.203 54.16C69.843 53.6533 69.663 53.06 69.663 52.38C69.663 51.7 69.843 51.1133 70.203 50.62C70.5764 50.1133 71.0897 49.72 71.743 49.44C72.3964 49.1467 73.1497 49 74.003 49ZM74.003 50.3C73.1897 50.3 72.5297 50.4933 72.023 50.88C71.5164 51.2533 71.263 51.7533 71.263 52.38C71.263 53.0067 71.5164 53.5067 72.023 53.88C72.5297 54.2533 73.1897 54.44 74.003 54.44C74.8297 54.44 75.4897 54.2533 75.983 53.88C76.4897 53.5067 76.743 53.0067 76.743 52.38C76.743 51.7533 76.4897 51.2533 75.983 50.88C75.4897 50.4933 74.8297 50.3 74.003 50.3ZM73.183 44.48H74.843V47.36H73.183V44.48ZM71.403 60.8H83.463V62.16H71.403V60.8ZM71.403 56.96H73.043V61.36H71.403V56.96ZM104.597 44.46H106.257V57.56H104.597V44.46ZM105.737 49.82H108.937V51.2H105.737V49.82ZM93.0568 52.98H94.4568C95.6968 52.98 96.7835 52.9667 97.7168 52.94C98.6501 52.9133 99.5101 52.8533 100.297 52.76C101.083 52.6667 101.877 52.54 102.677 52.38L102.877 53.74C102.037 53.9 101.21 54.0267 100.397 54.12C99.5968 54.2133 98.7235 54.28 97.7768 54.32C96.8301 54.3467 95.7235 54.36 94.4568 54.36H93.0568V52.98ZM93.0568 46.02H101.037V47.38H94.6968V53.72H93.0568V46.02ZM94.9968 60.8H107.057V62.16H94.9968V60.8ZM94.9968 56.24H96.6368V61.42H94.9968V56.24ZM115.435 45.86C116.315 45.86 117.095 46.12 117.775 46.64C118.455 47.1467 118.982 47.8733 119.355 48.82C119.742 49.7667 119.935 50.88 119.935 52.16C119.935 53.44 119.742 54.5533 119.355 55.5C118.982 56.4467 118.455 57.18 117.775 57.7C117.095 58.22 116.315 58.48 115.435 58.48C114.569 58.48 113.789 58.22 113.095 57.7C112.415 57.18 111.882 56.4467 111.495 55.5C111.122 54.5533 110.935 53.44 110.935 52.16C110.935 50.88 111.122 49.7667 111.495 48.82C111.882 47.8733 112.415 47.1467 113.095 46.64C113.789 46.12 114.569 45.86 115.435 45.86ZM115.435 47.34C114.862 47.34 114.355 47.54 113.915 47.94C113.475 48.3267 113.129 48.8867 112.875 49.62C112.635 50.34 112.515 51.1867 112.515 52.16C112.515 53.1333 112.635 53.9867 112.875 54.72C113.129 55.44 113.475 56 113.915 56.4C114.355 56.8 114.862 57 115.435 57C116.022 57 116.535 56.8 116.975 56.4C117.415 56 117.755 55.44 117.995 54.72C118.249 53.9867 118.375 53.1333 118.375 52.16C118.375 51.1867 118.249 50.34 117.995 49.62C117.755 48.8867 117.415 48.3267 116.975 47.94C116.535 47.54 116.022 47.34 115.435 47.34ZM123.855 44.46H125.495V62.58H123.855V44.46ZM119.395 51.36H124.595V52.7H119.395V51.36ZM142.829 52.82H149.329V54.18H142.829V52.82ZM134.209 58.86H150.609V60.26H134.209V58.86ZM141.529 55.08H143.169V59.52H141.529V55.08ZM142.829 46.14H149.149V47.52H144.489V53.54H142.829V46.14ZM135.609 46.18H141.729V47.54H137.269V53.48H135.609V46.18ZM135.609 52.8H136.629C137.216 52.8 137.789 52.7867 138.349 52.76C138.922 52.7333 139.502 52.6867 140.089 52.62C140.676 52.54 141.276 52.4333 141.889 52.3L142.049 53.68C141.396 53.8267 140.769 53.94 140.169 54.02C139.569 54.0867 138.982 54.1333 138.409 54.16C137.836 54.1733 137.242 54.18 136.629 54.18H135.609V52.8ZM154.807 49.9H167.107V51.24H154.807V49.9ZM152.587 53.66H168.987V55.02H152.587V53.66ZM154.807 45.12H156.447V50.58H154.807V45.12ZM154.687 60.76H167.207V62.12H154.687V60.76ZM154.687 56.84H156.347V61.12H154.687V56.84ZM178.901 46.28H180.101V47.86C180.101 48.3667 180.035 48.8933 179.901 49.44C179.781 49.9867 179.595 50.5267 179.341 51.06C179.088 51.5933 178.755 52.08 178.341 52.52C177.928 52.96 177.428 53.32 176.841 53.6L176.021 52.4C176.675 52.0667 177.215 51.64 177.641 51.12C178.068 50.5867 178.381 50.0333 178.581 49.46C178.795 48.8733 178.901 48.34 178.901 47.86V46.28ZM179.281 46.28H180.461V47.86C180.461 48.18 180.495 48.5533 180.561 48.98C180.641 49.3933 180.768 49.82 180.941 50.26C181.128 50.7 181.368 51.12 181.661 51.52C181.968 51.9067 182.348 52.2467 182.801 52.54L182.101 53.78C181.541 53.46 181.075 53.06 180.701 52.58C180.328 52.1 180.041 51.58 179.841 51.02C179.641 50.46 179.495 49.9067 179.401 49.36C179.321 48.8 179.281 48.3 179.281 47.86V46.28ZM183.761 46.28H184.941V47.86C184.941 48.3267 184.895 48.84 184.801 49.4C184.721 49.9467 184.581 50.5 184.381 51.06C184.181 51.62 183.895 52.1333 183.521 52.6C183.148 53.0667 182.675 53.46 182.101 53.78L181.421 52.54C181.875 52.26 182.248 51.9267 182.541 51.54C182.848 51.1533 183.088 50.7467 183.261 50.32C183.448 49.88 183.575 49.4467 183.641 49.02C183.721 48.5933 183.761 48.2067 183.761 47.86V46.28ZM184.141 46.28H185.341V47.86C185.341 48.3667 185.441 48.9133 185.641 49.5C185.855 50.0733 186.168 50.62 186.581 51.14C187.008 51.6467 187.555 52.0667 188.221 52.4L187.401 53.6C186.628 53.2267 186.001 52.72 185.521 52.08C185.041 51.44 184.688 50.7533 184.461 50.02C184.248 49.2733 184.141 48.5533 184.141 47.86V46.28ZM176.641 45.48H181.741V46.84H176.641V45.48ZM182.501 45.48H187.521V46.84H182.501V45.48ZM184.861 54.86H186.401V57.18H189.121V54.86H190.601V62.36H184.861V54.86ZM186.401 58.44V61.06H189.121V58.44H186.401ZM188.961 44.46H190.601V53.88H188.961V44.46ZM189.521 48.28H192.901V49.68H189.521V48.28ZM178.121 55.04H183.781V59.16H179.761V61.7H178.161V57.96H182.181V56.28H178.121V55.04ZM178.161 61.08H179.101C179.861 61.08 180.515 61.0733 181.061 61.06C181.621 61.06 182.148 61.0333 182.641 60.98C183.135 60.9267 183.648 60.8533 184.181 60.76L184.321 62.02C183.775 62.1267 183.248 62.2 182.741 62.24C182.235 62.2933 181.695 62.3267 181.121 62.34C180.548 62.3533 179.875 62.36 179.101 62.36H178.161V61.08ZM194.6 53.98H210.94V55.32H194.6V53.98ZM196.7 60.8H209.12V62.16H196.7V60.8ZM196.7 56.92H198.36V61.2H196.7V56.92ZM202.76 45.08C204.053 45.08 205.173 45.2267 206.12 45.52C207.08 45.8 207.82 46.2133 208.34 46.76C208.86 47.2933 209.12 47.9333 209.12 48.68C209.12 49.4267 208.86 50.0733 208.34 50.62C207.82 51.1667 207.08 51.5867 206.12 51.88C205.173 52.16 204.053 52.3 202.76 52.3C201.466 52.3 200.34 52.16 199.38 51.88C198.433 51.5867 197.7 51.1667 197.18 50.62C196.66 50.0733 196.4 49.4267 196.4 48.68C196.4 47.9333 196.66 47.2933 197.18 46.76C197.7 46.2133 198.433 45.8 199.38 45.52C200.34 45.2267 201.466 45.08 202.76 45.08ZM202.76 46.42C201.826 46.42 201.006 46.5133 200.3 46.7C199.606 46.8733 199.066 47.1333 198.68 47.48C198.293 47.8133 198.1 48.2133 198.1 48.68C198.1 49.1467 198.293 49.5533 198.68 49.9C199.066 50.2333 199.606 50.4933 200.3 50.68C201.006 50.8533 201.826 50.94 202.76 50.94C203.72 50.94 204.546 50.8533 205.24 50.68C205.933 50.4933 206.466 50.2333 206.84 49.9C207.226 49.5533 207.42 49.1467 207.42 48.68C207.42 48.2133 207.226 47.8133 206.84 47.48C206.466 47.1333 205.933 46.8733 205.24 46.7C204.546 46.5133 203.72 46.42 202.76 46.42ZM218.173 53.7H234.573V55.06H218.173V53.7ZM225.653 54.56H227.313V58.72H225.653V54.56ZM220.293 45.32H232.433V51.66H220.293V45.32ZM230.813 46.64H221.913V50.34H230.813V46.64ZM220.253 60.8H232.753V62.16H220.253V60.8ZM220.253 56.98H221.913V61.26H220.253V56.98ZM241.052 46.4H242.412V47.86C242.412 48.98 242.198 50.0133 241.772 50.96C241.358 51.9067 240.772 52.7333 240.012 53.44C239.265 54.1467 238.378 54.6867 237.352 55.06L236.512 53.74C237.418 53.42 238.212 52.9667 238.892 52.38C239.572 51.78 240.098 51.0933 240.472 50.32C240.858 49.5467 241.052 48.7267 241.052 47.86V46.4ZM241.352 46.4H242.712V47.86C242.712 48.6467 242.892 49.3933 243.252 50.1C243.612 50.8067 244.118 51.4267 244.772 51.96C245.425 52.4933 246.192 52.9133 247.072 53.22L246.292 54.52C245.278 54.1733 244.405 53.6733 243.672 53.02C242.938 52.3667 242.365 51.6 241.952 50.72C241.552 49.8267 241.352 48.8733 241.352 47.86V46.4ZM237.012 45.8H246.692V47.16H237.012V45.8ZM248.972 44.46H250.632V55.36H248.972V44.46ZM250.172 49.06H253.292V50.44H250.172V49.06ZM244.872 55.86C246.098 55.86 247.152 55.9933 248.032 56.26C248.925 56.5133 249.612 56.8867 250.092 57.38C250.572 57.8733 250.812 58.4733 250.812 59.18C250.812 59.8867 250.572 60.4867 250.092 60.98C249.612 61.4733 248.925 61.8533 248.032 62.12C247.152 62.3867 246.098 62.52 244.872 62.52C243.645 62.52 242.585 62.3867 241.692 62.12C240.798 61.8533 240.112 61.4733 239.632 60.98C239.152 60.4867 238.912 59.8867 238.912 59.18C238.912 58.4733 239.152 57.8733 239.632 57.38C240.112 56.8867 240.798 56.5133 241.692 56.26C242.585 55.9933 243.645 55.86 244.872 55.86ZM244.872 57.18C243.978 57.18 243.205 57.26 242.552 57.42C241.912 57.58 241.418 57.8067 241.072 58.1C240.725 58.3933 240.552 58.7533 240.552 59.18C240.552 59.6067 240.725 59.9733 241.072 60.28C241.418 60.5733 241.912 60.8 242.552 60.96C243.205 61.12 243.978 61.2 244.872 61.2C245.765 61.2 246.532 61.12 247.172 60.96C247.812 60.8 248.305 60.5733 248.652 60.28C248.998 59.9733 249.172 59.6067 249.172 59.18C249.172 58.7533 248.998 58.3933 248.652 58.1C248.305 57.8067 247.812 57.58 247.172 57.42C246.532 57.26 245.765 57.18 244.872 57.18ZM263.15 45.62C264.417 45.62 265.544 45.8267 266.53 46.24C267.517 46.6533 268.297 47.2333 268.87 47.98C269.444 48.7267 269.73 49.6 269.73 50.6C269.73 51.6133 269.444 52.4933 268.87 53.24C268.297 53.9867 267.517 54.5667 266.53 54.98C265.544 55.3933 264.417 55.6 263.15 55.6C261.91 55.6 260.79 55.3933 259.79 54.98C258.804 54.5667 258.024 53.9867 257.45 53.24C256.877 52.4933 256.59 51.6133 256.59 50.6C256.59 49.6 256.877 48.7267 257.45 47.98C258.024 47.2333 258.804 46.6533 259.79 46.24C260.79 45.8267 261.91 45.62 263.15 45.62ZM263.15 46.96C262.204 46.96 261.357 47.1133 260.61 47.42C259.864 47.7267 259.27 48.1533 258.83 48.7C258.39 49.2333 258.17 49.8667 258.17 50.6C258.17 51.32 258.39 51.9533 258.83 52.5C259.27 53.0467 259.864 53.4733 260.61 53.78C261.357 54.0867 262.204 54.24 263.15 54.24C264.11 54.24 264.964 54.0867 265.71 53.78C266.457 53.4733 267.044 53.0467 267.47 52.5C267.91 51.9533 268.13 51.32 268.13 50.6C268.13 49.8667 267.91 49.2333 267.47 48.7C267.044 48.1533 266.457 47.7267 265.71 47.42C264.964 47.1133 264.11 46.96 263.15 46.96ZM254.99 58.78H271.39V60.16H254.99V58.78ZM273.389 58.94H289.789V60.32H273.389V58.94ZM280.729 55.08H282.369V59.52H280.729V55.08ZM275.389 45.8H287.749V51.28H277.069V54.9H275.429V49.96H286.109V47.16H275.389V45.8ZM275.429 54.2H288.169V55.56H275.429V54.2ZM304.322 54.68H305.962V59.18H304.322V54.68ZM305.142 45.64C306.422 45.64 307.556 45.84 308.542 46.24C309.529 46.6267 310.302 47.1733 310.862 47.88C311.436 48.5867 311.722 49.42 311.722 50.38C311.722 51.34 311.436 52.18 310.862 52.9C310.302 53.6067 309.529 54.1533 308.542 54.54C307.556 54.9267 306.422 55.12 305.142 55.12C303.876 55.12 302.742 54.9267 301.742 54.54C300.756 54.1533 299.982 53.6067 299.422 52.9C298.862 52.18 298.582 51.34 298.582 50.38C298.582 49.42 298.862 48.5867 299.422 47.88C299.982 47.1733 300.756 46.6267 301.742 46.24C302.742 45.84 303.876 45.64 305.142 45.64ZM305.142 46.98C304.182 46.98 303.329 47.12 302.582 47.4C301.836 47.68 301.249 48.08 300.822 48.6C300.396 49.1067 300.182 49.7 300.182 50.38C300.182 51.06 300.396 51.66 300.822 52.18C301.249 52.7 301.836 53.1 302.582 53.38C303.329 53.66 304.182 53.8 305.142 53.8C306.102 53.8 306.956 53.66 307.702 53.38C308.449 53.1 309.036 52.7 309.462 52.18C309.902 51.66 310.122 51.06 310.122 50.38C310.122 49.7 309.902 49.1067 309.462 48.6C309.036 48.08 308.449 47.68 307.702 47.4C306.956 47.12 306.102 46.98 305.142 46.98ZM296.982 58.86H313.382V60.24H296.982V58.86ZM317.581 48.76H329.841V50.12H317.581V48.76ZM315.361 51.88H331.761V53.24H315.361V51.88ZM317.581 44.74H319.201V49.4H317.581V44.74ZM317.401 54.84H329.681V59.1H319.101V61.42H317.441V57.86H328.041V56.14H317.401V54.84ZM317.441 61H330.301V62.32H317.441V61ZM351.235 44.46H352.875V62.56H351.235V44.46ZM352.495 51.9H355.835V53.3H352.495V51.9ZM338.875 47.36H349.535V48.72H338.875V47.36ZM344.295 50.2C345.148 50.2 345.901 50.38 346.555 50.74C347.221 51.1 347.741 51.5933 348.115 52.22C348.501 52.8333 348.695 53.5467 348.695 54.36C348.695 55.1733 348.501 55.8933 348.115 56.52C347.741 57.1467 347.221 57.64 346.555 58C345.901 58.3467 345.148 58.52 344.295 58.52C343.441 58.52 342.681 58.3467 342.015 58C341.361 57.64 340.841 57.1467 340.455 56.52C340.068 55.8933 339.875 55.1733 339.875 54.36C339.875 53.5467 340.068 52.8333 340.455 52.22C340.841 51.5933 341.361 51.1 342.015 50.74C342.681 50.38 343.441 50.2 344.295 50.2ZM344.295 51.58C343.748 51.58 343.261 51.7 342.835 51.94C342.408 52.18 342.068 52.5067 341.815 52.92C341.575 53.3333 341.455 53.8133 341.455 54.36C341.455 54.9067 341.575 55.3933 341.815 55.82C342.068 56.2333 342.408 56.56 342.835 56.8C343.261 57.0267 343.748 57.14 344.295 57.14C344.828 57.14 345.308 57.0267 345.735 56.8C346.161 56.56 346.495 56.2333 346.735 55.82C346.988 55.3933 347.115 54.9067 347.115 54.36C347.115 53.8133 346.988 53.3333 346.735 52.92C346.495 52.5067 346.161 52.18 345.735 51.94C345.308 51.7 344.828 51.58 344.295 51.58ZM343.435 44.68H345.095V47.96H343.435V44.68ZM359.313 45.18H371.773V49.92H361.033V53.02H359.373V48.64H370.093V46.52H359.313V45.18ZM359.373 52.22H372.173V53.58H359.373V52.22ZM357.353 55.44H373.753V56.8H357.353V55.44ZM364.693 55.96H366.353V62.58H364.693V55.96ZM375.751 52.86H392.151V54.14H375.751V52.86ZM377.711 55.58H390.111V59.44H379.391V61.56H377.751V58.3H388.471V56.78H377.711V55.58ZM377.751 61.12H390.691V62.32H377.751V61.12ZM377.831 45H390.051V48.76H379.511V50.72H377.871V47.64H388.411V46.18H377.831V45ZM377.871 50.32H390.371V51.52H377.871V50.32ZM403.905 54.26H405.565V59.42H403.905V54.26ZM409.465 54.28H411.125V59.44H409.465V54.28ZM399.365 58.98H415.765V60.36H399.365V58.98ZM400.805 46.14H414.225V47.5H400.805V46.14ZM400.845 53.36H414.185V54.72H400.845V53.36ZM403.605 47.24H405.265V53.64H403.605V47.24ZM409.765 47.24H411.405V53.64H409.765V47.24ZM430.984 44.48H432.644V58.28H430.984V44.48ZM427.924 49.28H431.664V50.64H427.924V49.28ZM427.924 53.08H431.664V54.42H427.924V53.08ZM417.784 46.68H427.924V48.02H417.784V46.68ZM422.904 49C423.717 49 424.43 49.1467 425.044 49.44C425.657 49.7333 426.137 50.14 426.484 50.66C426.83 51.18 427.004 51.78 427.004 52.46C427.004 53.14 426.83 53.7467 426.484 54.28C426.137 54.8 425.657 55.2067 425.044 55.5C424.43 55.78 423.717 55.92 422.904 55.92C422.104 55.92 421.397 55.78 420.784 55.5C420.17 55.2067 419.69 54.8 419.344 54.28C418.997 53.7467 418.824 53.14 418.824 52.46C418.824 51.78 418.997 51.18 419.344 50.66C419.69 50.14 420.17 49.7333 420.784 49.44C421.397 49.1467 422.104 49 422.904 49ZM422.904 50.32C422.157 50.32 421.55 50.52 421.084 50.92C420.617 51.3067 420.384 51.82 420.384 52.46C420.384 53.1133 420.617 53.64 421.084 54.04C421.55 54.4267 422.157 54.62 422.904 54.62C423.65 54.62 424.257 54.4267 424.724 54.04C425.204 53.64 425.444 53.1133 425.444 52.46C425.444 51.82 425.204 51.3067 424.724 50.92C424.257 50.52 423.65 50.32 422.904 50.32ZM422.104 44.46H423.744V47.52H422.104V44.46ZM421.024 60.8H433.064V62.16H421.024V60.8ZM421.024 57.08H422.684V61.44H421.024V57.08ZM436.122 47.56H445.102V48.92H436.122V47.56ZM440.622 50.12C441.382 50.12 442.049 50.2933 442.622 50.64C443.209 50.9867 443.669 51.4733 444.002 52.1C444.335 52.7133 444.502 53.4267 444.502 54.24C444.502 55.0533 444.335 55.7733 444.002 56.4C443.669 57.0133 443.209 57.5 442.622 57.86C442.049 58.2067 441.382 58.38 440.622 58.38C439.875 58.38 439.209 58.2067 438.622 57.86C438.035 57.5 437.575 57.0133 437.242 56.4C436.909 55.7733 436.742 55.0533 436.742 54.24C436.742 53.4267 436.909 52.7133 437.242 52.1C437.575 51.4867 438.035 51.0067 438.622 50.66C439.209 50.3 439.875 50.12 440.622 50.12ZM440.622 51.52C440.169 51.52 439.755 51.64 439.382 51.88C439.022 52.1067 438.735 52.4267 438.522 52.84C438.322 53.24 438.222 53.7067 438.222 54.24C438.222 54.7733 438.322 55.2467 438.522 55.66C438.735 56.0733 439.022 56.3933 439.382 56.62C439.755 56.8467 440.169 56.96 440.622 56.96C441.089 56.96 441.502 56.8467 441.862 56.62C442.222 56.3933 442.502 56.0733 442.702 55.66C442.915 55.2467 443.022 54.7733 443.022 54.24C443.022 53.7067 442.915 53.24 442.702 52.84C442.502 52.4267 442.222 52.1067 441.862 51.88C441.502 51.64 441.089 51.52 440.622 51.52ZM449.882 44.46H451.462V62.56H449.882V44.46ZM446.982 52.08H450.402V53.44H446.982V52.08ZM446.002 44.88H447.562V61.68H446.002V44.88ZM439.802 45H441.442V48.38H439.802V45ZM461.801 46.26H463.241V47.02C463.241 47.66 463.114 48.2667 462.861 48.84C462.607 49.4133 462.254 49.9467 461.801 50.44C461.347 50.92 460.821 51.3467 460.221 51.72C459.621 52.0933 458.974 52.4133 458.281 52.68C457.601 52.9333 456.894 53.12 456.161 53.24L455.521 51.92C456.161 51.84 456.781 51.6933 457.381 51.48C457.994 51.2533 458.567 50.9867 459.101 50.68C459.634 50.3733 460.101 50.0267 460.501 49.64C460.914 49.2533 461.234 48.84 461.461 48.4C461.687 47.9467 461.801 47.4867 461.801 47.02V46.26ZM462.221 46.26H463.661V47.02C463.661 47.4867 463.774 47.9467 464.001 48.4C464.227 48.84 464.541 49.2533 464.941 49.64C465.354 50.0267 465.827 50.3733 466.361 50.68C466.894 50.9867 467.461 51.2533 468.061 51.48C468.674 51.6933 469.301 51.84 469.941 51.92L469.321 53.24C468.587 53.12 467.874 52.9333 467.181 52.68C466.487 52.4133 465.841 52.0933 465.241 51.72C464.641 51.3467 464.114 50.92 463.661 50.44C463.207 49.9467 462.854 49.4133 462.601 48.84C462.347 48.2667 462.221 47.66 462.221 47.02V46.26ZM461.881 55.66H463.521V62.54H461.881V55.66ZM454.561 54.76H470.901V56.12H454.561V54.76ZM456.101 45.58H469.341V46.92H456.101V45.58ZM480.079 50.94H483.559V52.32H480.079V50.94ZM476.719 46.16H478.019V49.62C478.019 50.5533 477.919 51.4733 477.719 52.38C477.532 53.2867 477.252 54.14 476.879 54.94C476.519 55.74 476.079 56.46 475.559 57.1C475.039 57.74 474.452 58.26 473.799 58.66L472.759 57.42C473.372 57.0467 473.926 56.58 474.419 56.02C474.912 55.46 475.326 54.8333 475.659 54.14C476.006 53.4333 476.266 52.7 476.439 51.94C476.626 51.1667 476.719 50.3933 476.719 49.62V46.16ZM477.039 46.16H478.319V49.56C478.319 50.28 478.399 51.0067 478.559 51.74C478.732 52.46 478.972 53.1533 479.279 53.82C479.599 54.4733 479.992 55.0733 480.459 55.62C480.926 56.1667 481.452 56.62 482.039 56.98L481.099 58.26C480.446 57.86 479.866 57.3533 479.359 56.74C478.852 56.1133 478.426 55.4133 478.079 54.64C477.732 53.8533 477.472 53.0267 477.299 52.16C477.126 51.2933 477.039 50.4267 477.039 49.56V46.16ZM486.739 44.46H488.339V62.56H486.739V44.46ZM483.059 44.84H484.619V61.64H483.059V44.84ZM495.377 53.78H497.017V59.18H495.377V53.78ZM502.057 53.78H503.717V59.18H502.057V53.78ZM491.357 58.86H507.757V60.24H491.357V58.86ZM499.517 45.6C500.797 45.6 501.931 45.7933 502.917 46.18C503.904 46.5667 504.677 47.1067 505.237 47.8C505.811 48.4933 506.097 49.3133 506.097 50.26C506.097 51.1933 505.811 52.0133 505.237 52.72C504.677 53.4133 503.904 53.9533 502.917 54.34C501.931 54.7133 500.797 54.9 499.517 54.9C498.251 54.9 497.117 54.7133 496.117 54.34C495.131 53.9533 494.357 53.4133 493.797 52.72C493.237 52.0133 492.957 51.1933 492.957 50.26C492.957 49.3133 493.237 48.4933 493.797 47.8C494.357 47.1067 495.131 46.5667 496.117 46.18C497.117 45.7933 498.251 45.6 499.517 45.6ZM499.517 46.92C498.557 46.92 497.704 47.06 496.957 47.34C496.211 47.62 495.624 48.0133 495.197 48.52C494.771 49.0133 494.557 49.5933 494.557 50.26C494.557 50.9267 494.771 51.5133 495.197 52.02C495.624 52.5133 496.211 52.9 496.957 53.18C497.704 53.46 498.557 53.6 499.517 53.6C500.491 53.6 501.351 53.46 502.097 53.18C502.844 52.9 503.431 52.5133 503.857 52.02C504.284 51.5133 504.497 50.9267 504.497 50.26C504.497 49.5933 504.284 49.0133 503.857 48.52C503.431 48.0133 502.844 47.62 502.097 47.34C501.351 47.06 500.491 46.92 499.517 46.92ZM513.116 47.1L512.856 56.8H510.956L510.696 47.1H513.116ZM511.976 61.14C511.563 61.14 511.216 61 510.936 60.72C510.656 60.44 510.516 60.0933 510.516 59.68C510.516 59.2667 510.656 58.92 510.936 58.64C511.216 58.36 511.563 58.22 511.976 58.22C512.376 58.22 512.716 58.36 512.996 58.64C513.276 58.92 513.416 59.2667 513.416 59.68C513.416 60.0933 513.276 60.44 512.996 60.72C512.716 61 512.376 61.14 511.976 61.14ZM136.116 74.38H147.756V75.74H136.116V74.38ZM134.336 86.54H150.676V87.92H134.336V86.54ZM146.856 74.38H148.496V76.2C148.496 76.96 148.483 77.7733 148.456 78.64C148.443 79.4933 148.389 80.44 148.296 81.48C148.203 82.52 148.043 83.6933 147.816 85L146.136 84.82C146.376 83.5933 146.543 82.4667 146.636 81.44C146.743 80.4133 146.803 79.4667 146.816 78.6C146.843 77.7333 146.856 76.9333 146.856 76.2V74.38ZM155.794 84.1H167.614V90.32H155.794V84.1ZM165.974 85.4H157.434V88.96H165.974V85.4ZM165.954 72.48H167.614V83.1H165.954V72.48ZM162.574 76.52H166.474V77.88H162.574V76.52ZM153.494 81H154.854C155.881 81 156.834 80.9867 157.714 80.96C158.594 80.9333 159.454 80.8867 160.294 80.82C161.148 80.74 162.028 80.6267 162.934 80.48L163.074 81.84C162.141 82 161.241 82.12 160.374 82.2C159.521 82.2667 158.648 82.3133 157.754 82.34C156.874 82.3667 155.908 82.38 154.854 82.38H153.494V81ZM153.454 73.38H161.454V78.42H155.134V82.02H153.494V77.14H159.834V74.74H153.454V73.38ZM190.088 72.46H191.668V90.56H190.088V72.46ZM183.488 78.96H186.968V80.32H183.488V78.96ZM186.468 72.88H188.028V89.62H186.468V72.88ZM180.028 75.28H181.308V77.58C181.308 78.5667 181.215 79.5333 181.028 80.48C180.841 81.4133 180.568 82.2933 180.208 83.12C179.848 83.9333 179.408 84.6733 178.888 85.34C178.368 85.9933 177.781 86.5267 177.128 86.94L176.108 85.7C176.948 85.1933 177.655 84.5133 178.228 83.66C178.815 82.8067 179.261 81.8533 179.568 80.8C179.875 79.7467 180.028 78.6733 180.028 77.58V75.28ZM180.368 75.28H181.628V77.58C181.628 78.62 181.775 79.64 182.068 80.64C182.375 81.64 182.808 82.5467 183.368 83.36C183.941 84.16 184.641 84.8 185.468 85.28L184.468 86.52C183.588 85.9733 182.841 85.2467 182.228 84.34C181.628 83.42 181.168 82.38 180.848 81.22C180.528 80.0467 180.368 78.8333 180.368 77.58V75.28ZM176.608 74.58H184.868V75.94H176.608V74.58ZM206.967 72.46H208.627V90.54H206.967V72.46ZM208.187 79.8H211.507V81.18H208.187V79.8ZM202.347 74.4H203.967C203.967 76.12 203.687 77.7667 203.127 79.34C202.567 80.9 201.687 82.3467 200.487 83.68C199.287 85 197.707 86.1467 195.747 87.12L194.827 85.84C196.507 85 197.9 84.02 199.007 82.9C200.127 81.7667 200.96 80.5133 201.507 79.14C202.067 77.7533 202.347 76.26 202.347 74.66V74.4ZM195.667 74.4H203.187V75.78H195.667V74.4ZM218.24 85.96V84.24L224.96 74.6H227.72V83.98H229.58V85.96H227.72V89H225.48V85.96H218.24ZM225.58 76.92L220.86 83.98H225.58V76.92ZM240.63 77.82H244.87V79.18H240.63V77.82ZM244.49 72.48H246.15V84.9H244.49V72.48ZM239.49 83.34H240.91V83.96C240.91 84.8133 240.723 85.6067 240.35 86.34C239.99 87.06 239.496 87.7 238.87 88.26C238.243 88.8067 237.523 89.2667 236.71 89.64C235.896 90.0133 235.03 90.2933 234.11 90.48L233.45 89.16C234.25 89.0267 235.01 88.8067 235.73 88.5C236.463 88.18 237.11 87.7933 237.67 87.34C238.23 86.8867 238.67 86.3733 238.99 85.8C239.323 85.2267 239.49 84.6133 239.49 83.96V83.34ZM239.71 83.34H241.13V83.96C241.13 84.6 241.29 85.2067 241.61 85.78C241.93 86.34 242.37 86.8467 242.93 87.3C243.49 87.7533 244.13 88.1333 244.85 88.44C245.583 88.7467 246.343 88.9733 247.13 89.12L246.45 90.44C245.543 90.2667 244.683 89.9933 243.87 89.62C243.07 89.2467 242.356 88.7867 241.73 88.24C241.103 87.68 240.61 87.04 240.25 86.32C239.89 85.6 239.71 84.8133 239.71 83.96V83.34ZM238.87 73.76H240.59C240.59 75.32 240.303 76.74 239.73 78.02C239.17 79.3 238.29 80.4267 237.09 81.4C235.89 82.3733 234.33 83.1733 232.41 83.8L231.73 82.48C233.436 81.9333 234.81 81.26 235.85 80.46C236.903 79.66 237.67 78.7467 238.15 77.72C238.63 76.6933 238.87 75.58 238.87 74.38V73.76ZM232.55 73.76H239.85V75.12H232.55V73.76ZM238.85 77.2V78.36L231.93 78.88L231.65 77.52L238.85 77.2ZM255.603 74.1H263.923V82.46H255.603V74.1ZM262.303 75.44H257.223V81.12H262.303V75.44ZM267.243 72.46H268.903V85.72H267.243V72.46ZM268.383 77.96H271.563V79.34H268.383V77.96ZM257.643 88.8H269.703V90.16H257.643V88.8ZM257.643 84.46H259.283V89.38H257.643V84.46ZM277.942 83.24H279.602V86.18H277.942V83.24ZM285.542 72.46H287.202V90.56H285.542V72.46ZM286.682 80.14H290.022V81.54H286.682V80.14ZM273.302 87.12L273.042 85.72C274.135 85.72 275.322 85.7133 276.602 85.7C277.895 85.6733 279.215 85.62 280.562 85.54C281.908 85.46 283.208 85.3333 284.462 85.16L284.582 86.38C283.288 86.6067 281.968 86.7733 280.622 86.88C279.288 86.9867 277.995 87.0533 276.742 87.08C275.502 87.1067 274.355 87.12 273.302 87.12ZM273.362 74.66H284.162V76H273.362V74.66ZM278.782 77.04C279.622 77.04 280.362 77.18 281.002 77.46C281.642 77.74 282.142 78.1333 282.502 78.64C282.862 79.1333 283.042 79.72 283.042 80.4C283.042 81.0667 282.862 81.6533 282.502 82.16C282.142 82.6667 281.642 83.06 281.002 83.34C280.362 83.6067 279.622 83.74 278.782 83.74C277.942 83.74 277.195 83.6067 276.542 83.34C275.902 83.06 275.402 82.6667 275.042 82.16C274.695 81.6533 274.522 81.0667 274.522 80.4C274.522 79.72 274.695 79.1333 275.042 78.64C275.402 78.1333 275.902 77.74 276.542 77.46C277.195 77.18 277.942 77.04 278.782 77.04ZM278.782 78.34C277.968 78.34 277.315 78.5267 276.822 78.9C276.328 79.2733 276.082 79.7733 276.082 80.4C276.082 81.0133 276.328 81.5067 276.822 81.88C277.315 82.2533 277.968 82.44 278.782 82.44C279.582 82.44 280.228 82.2533 280.722 81.88C281.215 81.5067 281.462 81.0133 281.462 80.4C281.462 79.7733 281.215 79.2733 280.722 78.9C280.228 78.5267 279.582 78.34 278.782 78.34ZM277.942 72.5H279.602V75.54H277.942V72.5ZM291.66 86.94H308.06V88.32H291.66V86.94ZM299 83.08H300.64V87.52H299V83.08ZM293.66 73.8H306.02V79.28H295.34V82.9H293.7V77.96H304.38V75.16H293.66V73.8ZM293.7 82.2H306.44V83.56H293.7V82.2ZM319.794 82.26H321.454V87.42H319.794V82.26ZM325.354 82.28H327.014V87.44H325.354V82.28ZM315.254 86.98H331.654V88.36H315.254V86.98ZM316.694 74.14H330.114V75.5H316.694V74.14ZM316.734 81.36H330.074V82.72H316.734V81.36ZM319.494 75.24H321.154V81.64H319.494V75.24ZM325.654 75.24H327.294V81.64H325.654V75.24ZM346.872 72.48H348.532V86.28H346.872V72.48ZM343.812 77.28H347.552V78.64H343.812V77.28ZM343.812 81.08H347.552V82.42H343.812V81.08ZM333.672 74.68H343.812V76.02H333.672V74.68ZM338.792 77C339.606 77 340.319 77.1467 340.932 77.44C341.546 77.7333 342.026 78.14 342.372 78.66C342.719 79.18 342.892 79.78 342.892 80.46C342.892 81.14 342.719 81.7467 342.372 82.28C342.026 82.8 341.546 83.2067 340.932 83.5C340.319 83.78 339.606 83.92 338.792 83.92C337.992 83.92 337.286 83.78 336.672 83.5C336.059 83.2067 335.579 82.8 335.232 82.28C334.886 81.7467 334.712 81.14 334.712 80.46C334.712 79.78 334.886 79.18 335.232 78.66C335.579 78.14 336.059 77.7333 336.672 77.44C337.286 77.1467 337.992 77 338.792 77ZM338.792 78.32C338.046 78.32 337.439 78.52 336.972 78.92C336.506 79.3067 336.272 79.82 336.272 80.46C336.272 81.1133 336.506 81.64 336.972 82.04C337.439 82.4267 338.046 82.62 338.792 82.62C339.539 82.62 340.146 82.4267 340.612 82.04C341.092 81.64 341.332 81.1133 341.332 80.46C341.332 79.82 341.092 79.3067 340.612 78.92C340.146 78.52 339.539 78.32 338.792 78.32ZM337.992 72.46H339.632V75.52H337.992V72.46ZM336.912 88.8H348.952V90.16H336.912V88.8ZM336.912 85.08H338.572V89.44H336.912V85.08ZM352.011 75.56H360.991V76.92H352.011V75.56ZM356.511 78.12C357.271 78.12 357.937 78.2933 358.511 78.64C359.097 78.9867 359.557 79.4733 359.891 80.1C360.224 80.7133 360.391 81.4267 360.391 82.24C360.391 83.0533 360.224 83.7733 359.891 84.4C359.557 85.0133 359.097 85.5 358.511 85.86C357.937 86.2067 357.271 86.38 356.511 86.38C355.764 86.38 355.097 86.2067 354.511 85.86C353.924 85.5 353.464 85.0133 353.131 84.4C352.797 83.7733 352.631 83.0533 352.631 82.24C352.631 81.4267 352.797 80.7133 353.131 80.1C353.464 79.4867 353.924 79.0067 354.511 78.66C355.097 78.3 355.764 78.12 356.511 78.12ZM356.511 79.52C356.057 79.52 355.644 79.64 355.271 79.88C354.911 80.1067 354.624 80.4267 354.411 80.84C354.211 81.24 354.111 81.7067 354.111 82.24C354.111 82.7733 354.211 83.2467 354.411 83.66C354.624 84.0733 354.911 84.3933 355.271 84.62C355.644 84.8467 356.057 84.96 356.511 84.96C356.977 84.96 357.391 84.8467 357.751 84.62C358.111 84.3933 358.391 84.0733 358.591 83.66C358.804 83.2467 358.911 82.7733 358.911 82.24C358.911 81.7067 358.804 81.24 358.591 80.84C358.391 80.4267 358.111 80.1067 357.751 79.88C357.391 79.64 356.977 79.52 356.511 79.52ZM365.771 72.46H367.351V90.56H365.771V72.46ZM362.871 80.08H366.291V81.44H362.871V80.08ZM361.891 72.88H363.451V89.68H361.891V72.88ZM355.691 73H357.331V76.38H355.691V73ZM377.725 81.14H390.145V82.5H377.725V81.14ZM375.645 86.72H392.045V88.1H375.645V86.72ZM377.725 74.14H389.965V75.5H379.365V81.74H377.725V74.14ZM394.963 79.98H396.403C397.283 79.98 398.096 79.9733 398.843 79.96C399.59 79.9333 400.303 79.9067 400.983 79.88C401.663 79.84 402.33 79.7867 402.983 79.72C403.65 79.6533 404.33 79.5667 405.023 79.46L405.183 80.74C404.236 80.9 403.316 81.02 402.423 81.1C401.543 81.18 400.616 81.2333 399.643 81.26C398.683 81.2867 397.603 81.3 396.403 81.3H394.963V79.98ZM394.903 73.32H403.183V77.8H396.583V80.6H394.963V76.58H401.563V74.62H394.903V73.32ZM397.163 82.78H408.863V87.08H398.863V89.62H397.223V85.84H407.183V84.08H397.163V82.78ZM397.223 89.04H409.483V90.36H397.223V89.04ZM407.203 72.46H408.863V81.96H407.203V72.46ZM426.221 72.46H427.821V90.56H426.221V72.46ZM418.361 79.86H422.921V81.2H418.361V79.86ZM422.461 72.94H424.021V89.64H422.461V72.94ZM418.581 74.76H420.181C420.181 76.3333 419.955 77.8467 419.501 79.3C419.061 80.74 418.341 82.0867 417.341 83.34C416.341 84.58 415.028 85.6867 413.401 86.66L412.441 85.46C413.855 84.6067 415.015 83.6467 415.921 82.58C416.828 81.5 417.495 80.3333 417.921 79.08C418.361 77.8133 418.581 76.4733 418.581 75.06V74.76ZM413.221 74.76H419.201V76.12H413.221V74.76ZM434.86 81.78H436.5V87.18H434.86V81.78ZM441.54 81.78H443.2V87.18H441.54V81.78ZM430.84 86.86H447.24V88.24H430.84V86.86ZM439 73.6C440.28 73.6 441.413 73.7933 442.4 74.18C443.387 74.5667 444.16 75.1067 444.72 75.8C445.293 76.4933 445.58 77.3133 445.58 78.26C445.58 79.1933 445.293 80.0133 444.72 80.72C444.16 81.4133 443.387 81.9533 442.4 82.34C441.413 82.7133 440.28 82.9 439 82.9C437.733 82.9 436.6 82.7133 435.6 82.34C434.613 81.9533 433.84 81.4133 433.28 80.72C432.72 80.0133 432.44 79.1933 432.44 78.26C432.44 77.3133 432.72 76.4933 433.28 75.8C433.84 75.1067 434.613 74.5667 435.6 74.18C436.6 73.7933 437.733 73.6 439 73.6ZM439 74.92C438.04 74.92 437.187 75.06 436.44 75.34C435.693 75.62 435.107 76.0133 434.68 76.52C434.253 77.0133 434.04 77.5933 434.04 78.26C434.04 78.9267 434.253 79.5133 434.68 80.02C435.107 80.5133 435.693 80.9 436.44 81.18C437.187 81.46 438.04 81.6 439 81.6C439.973 81.6 440.833 81.46 441.58 81.18C442.327 80.9 442.913 80.5133 443.34 80.02C443.767 79.5133 443.98 78.9267 443.98 78.26C443.98 77.5933 443.767 77.0133 443.34 76.52C442.913 76.0133 442.327 75.62 441.58 75.34C440.833 75.06 439.973 74.92 439 74.92ZM452.598 75.1L452.338 84.8H450.438L450.178 75.1H452.598ZM451.458 89.14C451.045 89.14 450.698 89 450.418 88.72C450.138 88.44 449.998 88.0933 449.998 87.68C449.998 87.2667 450.138 86.92 450.418 86.64C450.698 86.36 451.045 86.22 451.458 86.22C451.858 86.22 452.198 86.36 452.478 86.64C452.758 86.92 452.898 87.2667 452.898 87.68C452.898 88.0933 452.758 88.44 452.478 88.72C452.198 89 451.858 89.14 451.458 89.14Z" fill="#2A2B2A"/>
<path d="M110.672 159.444H111.984V163.044H110.672V159.444ZM111.328 152.212C112.352 152.212 113.259 152.372 114.048 152.692C114.837 153.001 115.456 153.439 115.904 154.004C116.363 154.569 116.592 155.236 116.592 156.004C116.592 156.772 116.363 157.444 115.904 158.02C115.456 158.585 114.837 159.023 114.048 159.332C113.259 159.641 112.352 159.796 111.328 159.796C110.315 159.796 109.408 159.641 108.608 159.332C107.819 159.023 107.2 158.585 106.752 158.02C106.304 157.444 106.08 156.772 106.08 156.004C106.08 155.236 106.304 154.569 106.752 154.004C107.2 153.439 107.819 153.001 108.608 152.692C109.408 152.372 110.315 152.212 111.328 152.212ZM111.328 153.284C110.56 153.284 109.877 153.396 109.28 153.62C108.683 153.844 108.213 154.164 107.872 154.58C107.531 154.985 107.36 155.46 107.36 156.004C107.36 156.548 107.531 157.028 107.872 157.444C108.213 157.86 108.683 158.18 109.28 158.404C109.877 158.628 110.56 158.74 111.328 158.74C112.096 158.74 112.779 158.628 113.376 158.404C113.973 158.18 114.443 157.86 114.784 157.444C115.136 157.028 115.312 156.548 115.312 156.004C115.312 155.46 115.136 154.985 114.784 154.58C114.443 154.164 113.973 153.844 113.376 153.62C112.779 153.396 112.096 153.284 111.328 153.284ZM104.8 162.788H117.92V163.892H104.8V162.788ZM121.279 154.708H131.087V155.796H121.279V154.708ZM119.503 157.204H132.623V158.292H119.503V157.204ZM121.279 151.492H122.575V155.22H121.279V151.492ZM121.135 159.572H130.959V162.98H122.495V164.836H121.167V161.988H129.647V160.612H121.135V159.572ZM121.167 164.5H131.455V165.556H121.167V164.5ZM138.926 152.324C139.683 152.324 140.35 152.468 140.926 152.756C141.512 153.033 141.971 153.428 142.302 153.94C142.632 154.452 142.798 155.049 142.798 155.732C142.798 156.404 142.632 157.001 142.302 157.524C141.971 158.036 141.512 158.436 140.926 158.724C140.35 159.001 139.683 159.14 138.926 159.14C138.179 159.14 137.512 159.001 136.926 158.724C136.339 158.436 135.875 158.036 135.534 157.524C135.203 157.001 135.038 156.404 135.038 155.732C135.038 155.049 135.203 154.452 135.534 153.94C135.875 153.428 136.339 153.033 136.926 152.756C137.512 152.468 138.179 152.324 138.926 152.324ZM138.926 153.476C138.435 153.476 137.992 153.572 137.598 153.764C137.214 153.945 136.91 154.207 136.686 154.548C136.462 154.889 136.35 155.284 136.35 155.732C136.35 156.18 136.462 156.575 136.686 156.916C136.91 157.257 137.214 157.524 137.598 157.716C137.992 157.897 138.435 157.988 138.926 157.988C139.427 157.988 139.87 157.897 140.254 157.716C140.638 157.524 140.942 157.257 141.166 156.916C141.39 156.575 141.502 156.18 141.502 155.732C141.502 155.284 141.39 154.889 141.166 154.548C140.942 154.207 140.638 153.945 140.254 153.764C139.87 153.572 139.427 153.476 138.926 153.476ZM144.702 151.268H146.03V165.764H144.702V151.268ZM134.493 162.596L134.318 161.476C135.203 161.476 136.174 161.471 137.23 161.46C138.286 161.439 139.374 161.396 140.494 161.332C141.624 161.257 142.712 161.14 143.758 160.98L143.87 161.956C142.782 162.159 141.678 162.308 140.558 162.404C139.448 162.489 138.376 162.543 137.342 162.564C136.307 162.585 135.357 162.596 134.493 162.596ZM156.681 152.82H157.769V153.988C157.769 154.884 157.598 155.711 157.257 156.468C156.926 157.225 156.457 157.887 155.849 158.452C155.251 159.017 154.542 159.449 153.721 159.748L153.049 158.692C153.774 158.436 154.409 158.073 154.953 157.604C155.497 157.124 155.918 156.575 156.217 155.956C156.526 155.337 156.681 154.681 156.681 153.988V152.82ZM156.921 152.82H158.009V153.988C158.009 154.617 158.153 155.215 158.441 155.78C158.729 156.345 159.134 156.841 159.657 157.268C160.179 157.695 160.793 158.031 161.497 158.276L160.873 159.316C160.062 159.039 159.363 158.639 158.777 158.116C158.19 157.593 157.731 156.98 157.401 156.276C157.081 155.561 156.921 154.799 156.921 153.988V152.82ZM153.449 152.34H161.193V153.428H153.449V152.34ZM163.017 151.268H164.345V159.988H163.017V151.268ZM163.977 154.948H166.473V156.052H163.977V154.948ZM159.737 160.388C160.718 160.388 161.561 160.495 162.265 160.708C162.979 160.911 163.529 161.209 163.913 161.604C164.297 161.999 164.489 162.479 164.489 163.044C164.489 163.609 164.297 164.089 163.913 164.484C163.529 164.879 162.979 165.183 162.265 165.396C161.561 165.609 160.718 165.716 159.737 165.716C158.755 165.716 157.907 165.609 157.193 165.396C156.478 165.183 155.929 164.879 155.545 164.484C155.161 164.089 154.969 163.609 154.969 163.044C154.969 162.479 155.161 161.999 155.545 161.604C155.929 161.209 156.478 160.911 157.193 160.708C157.907 160.495 158.755 160.388 159.737 160.388ZM159.737 161.444C159.022 161.444 158.403 161.508 157.881 161.636C157.369 161.764 156.974 161.945 156.697 162.18C156.419 162.415 156.281 162.703 156.281 163.044C156.281 163.385 156.419 163.679 156.697 163.924C156.974 164.159 157.369 164.34 157.881 164.468C158.403 164.596 159.022 164.66 159.737 164.66C160.451 164.66 161.065 164.596 161.577 164.468C162.089 164.34 162.483 164.159 162.761 163.924C163.038 163.679 163.177 163.385 163.177 163.044C163.177 162.703 163.038 162.415 162.761 162.18C162.483 161.945 162.089 161.764 161.577 161.636C161.065 161.508 160.451 161.444 159.737 161.444ZM167.831 162.756H180.951V163.876H167.831V162.756ZM173.671 159.252H174.983V163.124H173.671V159.252ZM173.623 152.228H174.791V153.348C174.791 153.977 174.679 154.569 174.455 155.124C174.242 155.668 173.943 156.18 173.559 156.66C173.175 157.129 172.733 157.551 172.231 157.924C171.741 158.297 171.213 158.612 170.647 158.868C170.082 159.124 169.506 159.311 168.919 159.428L168.343 158.324C168.855 158.239 169.362 158.089 169.863 157.876C170.375 157.652 170.855 157.385 171.303 157.076C171.751 156.756 172.151 156.404 172.503 156.02C172.855 155.625 173.127 155.204 173.319 154.756C173.522 154.297 173.623 153.828 173.623 153.348V152.228ZM173.863 152.228H175.015V153.348C175.015 153.839 175.117 154.308 175.319 154.756C175.522 155.204 175.799 155.625 176.151 156.02C176.503 156.404 176.903 156.756 177.351 157.076C177.81 157.396 178.29 157.663 178.791 157.876C179.303 158.089 179.815 158.239 180.327 158.324L179.751 159.428C179.165 159.311 178.589 159.124 178.023 158.868C177.458 158.612 176.925 158.297 176.423 157.924C175.922 157.551 175.479 157.129 175.095 156.66C174.711 156.18 174.407 155.663 174.183 155.108C173.97 154.553 173.863 153.967 173.863 153.348V152.228ZM184.31 155.62H194.15V156.692H184.31V155.62ZM182.534 158.628H195.654V159.716H182.534V158.628ZM184.31 151.796H185.622V156.164H184.31V151.796ZM184.214 164.308H194.23V165.396H184.214V164.308ZM184.214 161.172H185.542V164.596H184.214V161.172ZM200.661 153.22C201.749 153.22 202.618 153.519 203.269 154.116C203.93 154.713 204.261 155.529 204.261 156.564C204.261 157.641 203.919 158.452 203.237 158.996C202.554 159.54 201.647 159.812 200.517 159.812L200.453 161.076H198.869L198.789 158.564H199.317C200.351 158.564 201.141 158.425 201.685 158.148C202.239 157.871 202.517 157.343 202.517 156.564C202.517 155.999 202.351 155.556 202.021 155.236C201.701 154.916 201.253 154.756 200.677 154.756C200.101 154.756 199.647 154.911 199.317 155.22C198.986 155.529 198.821 155.961 198.821 156.516H197.109C197.109 155.876 197.253 155.305 197.541 154.804C197.829 154.303 198.239 153.913 198.773 153.636C199.317 153.359 199.946 153.22 200.661 153.22ZM199.637 164.612C199.306 164.612 199.029 164.5 198.805 164.276C198.581 164.052 198.469 163.775 198.469 163.444C198.469 163.113 198.581 162.836 198.805 162.612C199.029 162.388 199.306 162.276 199.637 162.276C199.957 162.276 200.229 162.388 200.453 162.612C200.677 162.836 200.789 163.113 200.789 163.444C200.789 163.775 200.677 164.052 200.453 164.276C200.229 164.5 199.957 164.612 199.637 164.612Z" fill="#2A2B2A"/>
<mask id="path-5-inside-1_436_1749" fill="white">
<path d="M104 167.5H484V205.5H104V167.5Z"/>
</mask>
<path d="M484 205.5V204.5H104V205.5V206.5H484V205.5Z" fill="#2A2B2B" mask="url(#path-5-inside-1_436_1749)"/>
<path d="M110.672 255.444H111.984V259.044H110.672V255.444ZM111.328 248.212C112.352 248.212 113.259 248.372 114.048 248.692C114.837 249.001 115.456 249.439 115.904 250.004C116.363 250.569 116.592 251.236 116.592 252.004C116.592 252.772 116.363 253.444 115.904 254.02C115.456 254.585 114.837 255.023 114.048 255.332C113.259 255.641 112.352 255.796 111.328 255.796C110.315 255.796 109.408 255.641 108.608 255.332C107.819 255.023 107.2 254.585 106.752 254.02C106.304 253.444 106.08 252.772 106.08 252.004C106.08 251.236 106.304 250.569 106.752 250.004C107.2 249.439 107.819 249.001 108.608 248.692C109.408 248.372 110.315 248.212 111.328 248.212ZM111.328 249.284C110.56 249.284 109.877 249.396 109.28 249.62C108.683 249.844 108.213 250.164 107.872 250.58C107.531 250.985 107.36 251.46 107.36 252.004C107.36 252.548 107.531 253.028 107.872 253.444C108.213 253.86 108.683 254.18 109.28 254.404C109.877 254.628 110.56 254.74 111.328 254.74C112.096 254.74 112.779 254.628 113.376 254.404C113.973 254.18 114.443 253.86 114.784 253.444C115.136 253.028 115.312 252.548 115.312 252.004C115.312 251.46 115.136 250.985 114.784 250.58C114.443 250.164 113.973 249.844 113.376 249.62C112.779 249.396 112.096 249.284 111.328 249.284ZM104.8 258.788H117.92V259.892H104.8V258.788ZM121.279 250.708H131.087V251.796H121.279V250.708ZM119.503 253.204H132.623V254.292H119.503V253.204ZM121.279 247.492H122.575V251.22H121.279V247.492ZM121.135 255.572H130.959V258.98H122.495V260.836H121.167V257.988H129.647V256.612H121.135V255.572ZM121.167 260.5H131.455V261.556H121.167V260.5ZM138.926 248.324C139.683 248.324 140.35 248.468 140.926 248.756C141.512 249.033 141.971 249.428 142.302 249.94C142.632 250.452 142.798 251.049 142.798 251.732C142.798 252.404 142.632 253.001 142.302 253.524C141.971 254.036 141.512 254.436 140.926 254.724C140.35 255.001 139.683 255.14 138.926 255.14C138.179 255.14 137.512 255.001 136.926 254.724C136.339 254.436 135.875 254.036 135.534 253.524C135.203 253.001 135.038 252.404 135.038 251.732C135.038 251.049 135.203 250.452 135.534 249.94C135.875 249.428 136.339 249.033 136.926 248.756C137.512 248.468 138.179 248.324 138.926 248.324ZM138.926 249.476C138.435 249.476 137.992 249.572 137.598 249.764C137.214 249.945 136.91 250.207 136.686 250.548C136.462 250.889 136.35 251.284 136.35 251.732C136.35 252.18 136.462 252.575 136.686 252.916C136.91 253.257 137.214 253.524 137.598 253.716C137.992 253.897 138.435 253.988 138.926 253.988C139.427 253.988 139.87 253.897 140.254 253.716C140.638 253.524 140.942 253.257 141.166 252.916C141.39 252.575 141.502 252.18 141.502 251.732C141.502 251.284 141.39 250.889 141.166 250.548C140.942 250.207 140.638 249.945 140.254 249.764C139.87 249.572 139.427 249.476 138.926 249.476ZM144.702 247.268H146.03V261.764H144.702V247.268ZM134.493 258.596L134.318 257.476C135.203 257.476 136.174 257.471 137.23 257.46C138.286 257.439 139.374 257.396 140.494 257.332C141.624 257.257 142.712 257.14 143.758 256.98L143.87 257.956C142.782 258.159 141.678 258.308 140.558 258.404C139.448 258.489 138.376 258.543 137.342 258.564C136.307 258.585 135.357 258.596 134.493 258.596ZM163.001 247.268H164.329V255.812H163.001V247.268ZM163.769 250.964H166.441V252.084H163.769V250.964ZM154.953 256.468H164.329V259.396H156.297V260.916H154.985V258.516H163.017V257.396H154.953V256.468ZM154.985 260.644H164.873V261.588H154.985V260.644ZM156.905 253.204H158.217V255.044H156.905V253.204ZM153.193 255.476L153.033 254.5C153.886 254.5 154.83 254.495 155.865 254.484C156.899 254.463 157.955 254.425 159.033 254.372C160.11 254.308 161.145 254.207 162.137 254.068L162.233 254.932C161.209 255.103 160.158 255.231 159.081 255.316C158.014 255.391 156.974 255.439 155.961 255.46C154.958 255.471 154.035 255.476 153.193 255.476ZM153.401 248.372H161.705V249.316H153.401V248.372ZM157.545 249.78C158.569 249.78 159.385 249.945 159.993 250.276C160.611 250.607 160.921 251.071 160.921 251.668C160.921 252.276 160.611 252.751 159.993 253.092C159.385 253.423 158.569 253.588 157.545 253.588C156.521 253.588 155.699 253.423 155.081 253.092C154.473 252.751 154.169 252.276 154.169 251.668C154.169 251.071 154.473 250.607 155.081 250.276C155.699 249.945 156.521 249.78 157.545 249.78ZM157.545 250.66C156.894 250.66 156.377 250.751 155.993 250.932C155.619 251.113 155.433 251.359 155.433 251.668C155.433 251.988 155.619 252.244 155.993 252.436C156.377 252.617 156.894 252.708 157.545 252.708C158.195 252.708 158.707 252.617 159.081 252.436C159.465 252.244 159.657 251.988 159.657 251.668C159.657 251.359 159.465 251.113 159.081 250.932C158.707 250.751 158.195 250.66 157.545 250.66ZM156.905 247.14H158.217V248.868H156.905V247.14ZM167.831 254.404H180.919V255.476H167.831V254.404ZM173.719 252.084H175.015V254.852H173.719V252.084ZM169.479 251.668H179.383V252.74H169.479V251.668ZM169.479 247.94H179.287V248.996H170.791V252.308H169.479V247.94ZM174.359 256.516C175.906 256.516 177.117 256.745 177.991 257.204C178.866 257.652 179.303 258.292 179.303 259.124C179.303 259.956 178.866 260.596 177.991 261.044C177.117 261.503 175.906 261.732 174.359 261.732C172.813 261.732 171.597 261.503 170.711 261.044C169.837 260.596 169.399 259.956 169.399 259.124C169.399 258.292 169.837 257.652 170.711 257.204C171.597 256.745 172.813 256.516 174.359 256.516ZM174.343 257.556C173.597 257.556 172.951 257.62 172.407 257.748C171.874 257.865 171.463 258.041 171.175 258.276C170.887 258.5 170.743 258.783 170.743 259.124C170.743 259.455 170.887 259.737 171.175 259.972C171.463 260.207 171.874 260.383 172.407 260.5C172.951 260.628 173.597 260.692 174.343 260.692C175.111 260.692 175.762 260.628 176.295 260.5C176.839 260.383 177.255 260.207 177.543 259.972C177.831 259.737 177.975 259.455 177.975 259.124C177.975 258.783 177.831 258.5 177.543 258.276C177.255 258.041 176.839 257.865 176.295 257.748C175.762 257.62 175.111 257.556 174.343 257.556ZM192.578 254.5H193.89V257.028H192.578V254.5ZM186.706 254.036H199.778V255.124H186.706V254.036ZM193.234 256.628C194.781 256.628 195.992 256.847 196.866 257.284C197.741 257.721 198.178 258.351 198.178 259.172C198.178 259.983 197.741 260.607 196.866 261.044C195.992 261.492 194.781 261.716 193.234 261.716C191.688 261.716 190.472 261.492 189.586 261.044C188.712 260.607 188.274 259.983 188.274 259.172C188.274 258.351 188.712 257.721 189.586 257.284C190.472 256.847 191.688 256.628 193.234 256.628ZM193.234 257.668C192.477 257.668 191.826 257.727 191.282 257.844C190.749 257.961 190.338 258.132 190.05 258.356C189.762 258.58 189.618 258.852 189.618 259.172C189.618 259.492 189.762 259.764 190.05 259.988C190.338 260.212 190.749 260.383 191.282 260.5C191.826 260.628 192.477 260.692 193.234 260.692C193.992 260.692 194.637 260.628 195.17 260.5C195.714 260.383 196.13 260.212 196.418 259.988C196.706 259.764 196.85 259.492 196.85 259.172C196.85 258.852 196.706 258.58 196.418 258.356C196.13 258.132 195.714 257.961 195.17 257.844C194.637 257.727 193.992 257.668 193.234 257.668ZM192.386 248.468H193.554V248.9C193.554 249.369 193.453 249.801 193.25 250.196C193.058 250.591 192.786 250.959 192.434 251.3C192.082 251.631 191.666 251.924 191.186 252.18C190.717 252.436 190.205 252.649 189.65 252.82C189.096 252.98 188.514 253.097 187.906 253.172L187.426 252.116C187.949 252.063 188.45 251.972 188.93 251.844C189.421 251.705 189.874 251.54 190.29 251.348C190.717 251.145 191.085 250.916 191.394 250.66C191.704 250.404 191.944 250.127 192.114 249.828C192.296 249.529 192.386 249.22 192.386 248.9V248.468ZM192.93 248.468H194.098V248.9C194.098 249.231 194.184 249.545 194.354 249.844C194.536 250.132 194.781 250.404 195.09 250.66C195.4 250.905 195.762 251.129 196.178 251.332C196.605 251.524 197.058 251.689 197.538 251.828C198.029 251.967 198.536 252.063 199.058 252.116L198.578 253.172C197.97 253.097 197.389 252.98 196.834 252.82C196.28 252.649 195.762 252.436 195.282 252.18C194.813 251.924 194.402 251.631 194.05 251.3C193.698 250.969 193.421 250.601 193.218 250.196C193.026 249.791 192.93 249.359 192.93 248.9V248.468ZM187.906 247.94H198.594V249.012H187.906V247.94ZM215.373 247.268H216.701V261.732H215.373V247.268ZM216.349 253.14H219.005V254.244H216.349V253.14ZM211.677 248.82H212.973C212.973 250.196 212.749 251.513 212.301 252.772C211.853 254.02 211.149 255.177 210.189 256.244C209.229 257.3 207.965 258.217 206.397 258.996L205.661 257.972C207.005 257.3 208.12 256.516 209.005 255.62C209.901 254.713 210.568 253.711 211.005 252.612C211.453 251.503 211.677 250.308 211.677 249.028V248.82ZM206.333 248.82H212.349V249.924H206.333V248.82ZM223.868 248.82H224.956V249.988C224.956 250.884 224.785 251.711 224.444 252.468C224.113 253.225 223.644 253.887 223.036 254.452C222.439 255.017 221.729 255.449 220.908 255.748L220.236 254.692C220.961 254.436 221.596 254.073 222.14 253.604C222.684 253.124 223.105 252.575 223.404 251.956C223.713 251.337 223.868 250.681 223.868 249.988V248.82ZM224.108 248.82H225.196V249.988C225.196 250.617 225.34 251.215 225.628 251.78C225.916 252.345 226.321 252.841 226.844 253.268C227.367 253.695 227.98 254.031 228.684 254.276L228.06 255.316C227.249 255.039 226.551 254.639 225.964 254.116C225.377 253.593 224.919 252.98 224.588 252.276C224.268 251.561 224.108 250.799 224.108 249.988V248.82ZM220.636 248.34H228.38V249.428H220.636V248.34ZM230.204 247.268H231.532V255.988H230.204V247.268ZM231.164 250.948H233.66V252.052H231.164V250.948ZM226.924 256.388C227.905 256.388 228.748 256.495 229.452 256.708C230.167 256.911 230.716 257.209 231.1 257.604C231.484 257.999 231.676 258.479 231.676 259.044C231.676 259.609 231.484 260.089 231.1 260.484C230.716 260.879 230.167 261.183 229.452 261.396C228.748 261.609 227.905 261.716 226.924 261.716C225.943 261.716 225.095 261.609 224.38 261.396C223.665 261.183 223.116 260.879 222.732 260.484C222.348 260.089 222.156 259.609 222.156 259.044C222.156 258.479 222.348 257.999 222.732 257.604C223.116 257.209 223.665 256.911 224.38 256.708C225.095 256.495 225.943 256.388 226.924 256.388ZM226.924 257.444C226.209 257.444 225.591 257.508 225.068 257.636C224.556 257.764 224.161 257.945 223.884 258.18C223.607 258.415 223.468 258.703 223.468 259.044C223.468 259.385 223.607 259.679 223.884 259.924C224.161 260.159 224.556 260.34 225.068 260.468C225.591 260.596 226.209 260.66 226.924 260.66C227.639 260.66 228.252 260.596 228.764 260.468C229.276 260.34 229.671 260.159 229.948 259.924C230.225 259.679 230.364 259.385 230.364 259.044C230.364 258.703 230.225 258.415 229.948 258.18C229.671 257.945 229.276 257.764 228.764 257.636C228.252 257.508 227.639 257.444 226.924 257.444ZM239.847 248.532H246.439V255.268H239.847V248.532ZM245.143 249.604H241.143V254.196H245.143V249.604ZM249.751 247.284H251.079V257.844H249.751V247.284ZM246.055 251.3H250.119V252.372H246.055V251.3ZM241.847 260.34H251.479V261.428H241.847V260.34ZM241.847 256.884H243.159V260.82H241.847V256.884ZM264.47 247.268H265.798V261.764H264.47V247.268ZM261.366 252.532H264.854V253.62H261.366V252.532ZM257.558 249.332H258.63V251.508C258.63 252.287 258.523 253.055 258.31 253.812C258.107 254.559 257.819 255.263 257.446 255.924C257.083 256.585 256.651 257.172 256.15 257.684C255.659 258.196 255.131 258.601 254.566 258.9L253.766 257.844C254.288 257.588 254.779 257.236 255.238 256.788C255.696 256.34 256.096 255.833 256.438 255.268C256.79 254.692 257.062 254.084 257.254 253.444C257.456 252.793 257.558 252.148 257.558 251.508V249.332ZM257.846 249.332H258.902V251.508C258.902 252.105 258.998 252.713 259.19 253.332C259.382 253.94 259.648 254.516 259.99 255.06C260.342 255.604 260.747 256.095 261.206 256.532C261.664 256.959 262.155 257.295 262.678 257.54L261.894 258.596C261.318 258.308 260.784 257.919 260.294 257.428C259.803 256.937 259.371 256.377 258.998 255.748C258.635 255.108 258.352 254.425 258.15 253.7C257.947 252.975 257.846 252.244 257.846 251.508V249.332ZM254.31 248.756H262.166V249.844H254.31V248.756ZM273.201 256.916H273.825C274.123 256.916 274.427 256.911 274.737 256.9C275.057 256.889 275.393 256.863 275.745 256.82C276.097 256.777 276.459 256.713 276.833 256.628L276.993 257.732C276.587 257.817 276.203 257.887 275.841 257.94C275.478 257.983 275.131 258.009 274.801 258.02C274.47 258.02 274.145 258.02 273.825 258.02H273.201V256.916ZM273.201 248.724H276.769V249.812H274.513V257.428H273.201V248.724ZM277.553 256.916H278.289C278.779 256.916 279.227 256.911 279.633 256.9C280.049 256.879 280.454 256.847 280.849 256.804C281.243 256.751 281.649 256.676 282.065 256.58L282.193 257.668C281.755 257.775 281.334 257.855 280.929 257.908C280.534 257.961 280.123 257.993 279.697 258.004C279.27 258.015 278.801 258.02 278.289 258.02H277.553V256.916ZM277.553 248.724H281.473V249.812H278.881V257.46H277.553V248.724ZM283.505 247.268H284.833V261.748H283.505V247.268ZM280.769 252.548H283.985V253.668H280.769V252.548ZM293.36 255.444H294.672V259.044H293.36V255.444ZM294.016 248.212C295.04 248.212 295.946 248.372 296.736 248.692C297.525 249.001 298.144 249.439 298.592 250.004C299.05 250.569 299.28 251.236 299.28 252.004C299.28 252.772 299.05 253.444 298.592 254.02C298.144 254.585 297.525 255.023 296.736 255.332C295.946 255.641 295.04 255.796 294.016 255.796C293.002 255.796 292.096 255.641 291.296 255.332C290.506 255.023 289.888 254.585 289.44 254.02C288.992 253.444 288.768 252.772 288.768 252.004C288.768 251.236 288.992 250.569 289.44 250.004C289.888 249.439 290.506 249.001 291.296 248.692C292.096 248.372 293.002 248.212 294.016 248.212ZM294.016 249.284C293.248 249.284 292.565 249.396 291.968 249.62C291.37 249.844 290.901 250.164 290.56 250.58C290.218 250.985 290.048 251.46 290.048 252.004C290.048 252.548 290.218 253.028 290.56 253.444C290.901 253.86 291.37 254.18 291.968 254.404C292.565 254.628 293.248 254.74 294.016 254.74C294.784 254.74 295.466 254.628 296.064 254.404C296.661 254.18 297.13 253.86 297.472 253.444C297.824 253.028 298 252.548 298 252.004C298 251.46 297.824 250.985 297.472 250.58C297.13 250.164 296.661 249.844 296.064 249.62C295.466 249.396 294.784 249.284 294.016 249.284ZM287.488 258.788H300.608V259.892H287.488V258.788ZM302.206 258.82H315.326V259.924H302.206V258.82ZM303.806 248.372H313.694V252.772H305.15V255.652H303.838V251.7H312.382V249.46H303.806V248.372ZM303.838 255.108H314.03V256.18H303.838V255.108ZM318.685 251.62H328.525V252.692H318.685V251.62ZM316.909 254.628H330.029V255.716H316.909V254.628ZM318.685 247.796H319.997V252.164H318.685V247.796ZM318.589 260.308H328.605V261.396H318.589V260.308ZM318.589 257.172H319.917V260.596H318.589V257.172ZM346.376 247.284H347.704V257.06H346.376V247.284ZM343.272 251.348H346.648V252.452H343.272V251.348ZM341.816 248.42H343.208C343.208 249.657 342.947 250.777 342.424 251.78C341.901 252.772 341.144 253.636 340.152 254.372C339.171 255.108 337.992 255.7 336.616 256.148L336.04 255.092C337.267 254.708 338.307 254.217 339.16 253.62C340.024 253.023 340.68 252.329 341.128 251.54C341.587 250.751 341.816 249.881 341.816 248.932V248.42ZM336.744 248.42H342.76V249.508H336.744V248.42ZM342.376 255.828H343.512V256.484C343.512 257.167 343.363 257.801 343.064 258.388C342.776 258.964 342.376 259.476 341.864 259.924C341.363 260.361 340.787 260.729 340.136 261.028C339.485 261.337 338.797 261.561 338.072 261.7L337.544 260.644C338.184 260.537 338.792 260.361 339.368 260.116C339.955 259.86 340.472 259.551 340.92 259.188C341.368 258.825 341.72 258.415 341.976 257.956C342.243 257.497 342.376 257.007 342.376 256.484V255.828ZM342.552 255.828H343.688V256.484C343.688 256.996 343.816 257.481 344.072 257.94C344.328 258.388 344.68 258.793 345.128 259.156C345.576 259.519 346.088 259.823 346.664 260.068C347.251 260.313 347.859 260.495 348.488 260.612L347.944 261.668C347.219 261.529 346.531 261.311 345.88 261.012C345.24 260.713 344.669 260.345 344.168 259.908C343.667 259.46 343.272 258.948 342.984 258.372C342.696 257.796 342.552 257.167 342.552 256.484V255.828ZM350.519 254.884H363.591V255.956H350.519V254.884ZM352.199 260.34H362.135V261.428H352.199V260.34ZM352.199 257.236H353.527V260.66H352.199V257.236ZM357.047 247.764C358.081 247.764 358.977 247.881 359.735 248.116C360.503 248.34 361.095 248.671 361.511 249.108C361.927 249.535 362.135 250.047 362.135 250.644C362.135 251.241 361.927 251.759 361.511 252.196C361.095 252.633 360.503 252.969 359.735 253.204C358.977 253.428 358.081 253.54 357.047 253.54C356.012 253.54 355.111 253.428 354.343 253.204C353.585 252.969 352.999 252.633 352.583 252.196C352.167 251.759 351.959 251.241 351.959 250.644C351.959 250.047 352.167 249.535 352.583 249.108C352.999 248.671 353.585 248.34 354.343 248.116C355.111 247.881 356.012 247.764 357.047 247.764ZM357.047 248.836C356.3 248.836 355.644 248.911 355.079 249.06C354.524 249.199 354.092 249.407 353.783 249.684C353.473 249.951 353.319 250.271 353.319 250.644C353.319 251.017 353.473 251.343 353.783 251.62C354.092 251.887 354.524 252.095 355.079 252.244C355.644 252.383 356.3 252.452 357.047 252.452C357.815 252.452 358.476 252.383 359.031 252.244C359.585 252.095 360.012 251.887 360.311 251.62C360.62 251.343 360.775 251.017 360.775 250.644C360.775 250.271 360.62 249.951 360.311 249.684C360.012 249.407 359.585 249.199 359.031 249.06C358.476 248.911 357.815 248.836 357.047 248.836ZM368.63 249.22C369.718 249.22 370.587 249.519 371.238 250.116C371.899 250.713 372.23 251.529 372.23 252.564C372.23 253.641 371.888 254.452 371.206 254.996C370.523 255.54 369.616 255.812 368.486 255.812L368.422 257.076H366.838L366.758 254.564H367.286C368.32 254.564 369.11 254.425 369.654 254.148C370.208 253.871 370.486 253.343 370.486 252.564C370.486 251.999 370.32 251.556 369.99 251.236C369.67 250.916 369.222 250.756 368.646 250.756C368.07 250.756 367.616 250.911 367.286 251.22C366.955 251.529 366.789 251.961 366.789 252.516H365.078C365.078 251.876 365.222 251.305 365.51 250.804C365.798 250.303 366.208 249.913 366.742 249.636C367.286 249.359 367.915 249.22 368.63 249.22ZM367.606 260.612C367.275 260.612 366.998 260.5 366.774 260.276C366.55 260.052 366.438 259.775 366.438 259.444C366.438 259.113 366.55 258.836 366.774 258.612C366.998 258.388 367.275 258.276 367.606 258.276C367.926 258.276 368.198 258.388 368.422 258.612C368.646 258.836 368.758 259.113 368.758 259.444C368.758 259.775 368.646 260.052 368.422 260.276C368.198 260.5 367.926 260.612 367.606 260.612Z" fill="#2A2B2A"/>
<mask id="path-8-inside-2_436_1749" fill="white">
<path d="M104 263.5H484V301.5H104V263.5Z"/>
</mask>
<path d="M484 301.5V300.5H104V301.5V302.5H484V301.5Z" fill="#2A2B2B" mask="url(#path-8-inside-2_436_1749)"/>
<path d="M110.672 351.444H111.984V355.044H110.672V351.444ZM111.328 344.212C112.352 344.212 113.259 344.372 114.048 344.692C114.837 345.001 115.456 345.439 115.904 346.004C116.363 346.569 116.592 347.236 116.592 348.004C116.592 348.772 116.363 349.444 115.904 350.02C115.456 350.585 114.837 351.023 114.048 351.332C113.259 351.641 112.352 351.796 111.328 351.796C110.315 351.796 109.408 351.641 108.608 351.332C107.819 351.023 107.2 350.585 106.752 350.02C106.304 349.444 106.08 348.772 106.08 348.004C106.08 347.236 106.304 346.569 106.752 346.004C107.2 345.439 107.819 345.001 108.608 344.692C109.408 344.372 110.315 344.212 111.328 344.212ZM111.328 345.284C110.56 345.284 109.877 345.396 109.28 345.62C108.683 345.844 108.213 346.164 107.872 346.58C107.531 346.985 107.36 347.46 107.36 348.004C107.36 348.548 107.531 349.028 107.872 349.444C108.213 349.86 108.683 350.18 109.28 350.404C109.877 350.628 110.56 350.74 111.328 350.74C112.096 350.74 112.779 350.628 113.376 350.404C113.973 350.18 114.443 349.86 114.784 349.444C115.136 349.028 115.312 348.548 115.312 348.004C115.312 347.46 115.136 346.985 114.784 346.58C114.443 346.164 113.973 345.844 113.376 345.62C112.779 345.396 112.096 345.284 111.328 345.284ZM104.8 354.788H117.92V355.892H104.8V354.788ZM121.279 346.708H131.087V347.796H121.279V346.708ZM119.503 349.204H132.623V350.292H119.503V349.204ZM121.279 343.492H122.575V347.22H121.279V343.492ZM121.135 351.572H130.959V354.98H122.495V356.836H121.167V353.988H129.647V352.612H121.135V351.572ZM121.167 356.5H131.455V357.556H121.167V356.5ZM138.926 344.324C139.683 344.324 140.35 344.468 140.926 344.756C141.512 345.033 141.971 345.428 142.302 345.94C142.632 346.452 142.798 347.049 142.798 347.732C142.798 348.404 142.632 349.001 142.302 349.524C141.971 350.036 141.512 350.436 140.926 350.724C140.35 351.001 139.683 351.14 138.926 351.14C138.179 351.14 137.512 351.001 136.926 350.724C136.339 350.436 135.875 350.036 135.534 349.524C135.203 349.001 135.038 348.404 135.038 347.732C135.038 347.049 135.203 346.452 135.534 345.94C135.875 345.428 136.339 345.033 136.926 344.756C137.512 344.468 138.179 344.324 138.926 344.324ZM138.926 345.476C138.435 345.476 137.992 345.572 137.598 345.764C137.214 345.945 136.91 346.207 136.686 346.548C136.462 346.889 136.35 347.284 136.35 347.732C136.35 348.18 136.462 348.575 136.686 348.916C136.91 349.257 137.214 349.524 137.598 349.716C137.992 349.897 138.435 349.988 138.926 349.988C139.427 349.988 139.87 349.897 140.254 349.716C140.638 349.524 140.942 349.257 141.166 348.916C141.39 348.575 141.502 348.18 141.502 347.732C141.502 347.284 141.39 346.889 141.166 346.548C140.942 346.207 140.638 345.945 140.254 345.764C139.87 345.572 139.427 345.476 138.926 345.476ZM144.702 343.268H146.03V357.764H144.702V343.268ZM134.493 354.596L134.318 353.476C135.203 353.476 136.174 353.471 137.23 353.46C138.286 353.439 139.374 353.396 140.494 353.332C141.624 353.257 142.712 353.14 143.758 352.98L143.87 353.956C142.782 354.159 141.678 354.308 140.558 354.404C139.448 354.489 138.376 354.543 137.342 354.564C136.307 354.585 135.357 354.596 134.493 354.596ZM162.905 343.268H164.233V357.732H162.905V343.268ZM163.881 349.14H166.537V350.244H163.881V349.14ZM159.209 344.82H160.505C160.505 346.196 160.281 347.513 159.833 348.772C159.385 350.02 158.681 351.177 157.721 352.244C156.761 353.3 155.497 354.217 153.929 354.996L153.193 353.972C154.537 353.3 155.651 352.516 156.536 351.62C157.433 350.713 158.099 349.711 158.537 348.612C158.985 347.503 159.209 346.308 159.209 345.028V344.82ZM153.865 344.82H159.881V345.924H153.865V344.82ZM171.399 344.82H172.487V345.988C172.487 346.884 172.317 347.711 171.975 348.468C171.645 349.225 171.175 349.887 170.567 350.452C169.97 351.017 169.261 351.449 168.439 351.748L167.767 350.692C168.493 350.436 169.127 350.073 169.671 349.604C170.215 349.124 170.637 348.575 170.935 347.956C171.245 347.337 171.399 346.681 171.399 345.988V344.82ZM171.639 344.82H172.727V345.988C172.727 346.617 172.871 347.215 173.159 347.78C173.447 348.345 173.853 348.841 174.375 349.268C174.898 349.695 175.511 350.031 176.215 350.276L175.591 351.316C174.781 351.039 174.082 350.639 173.495 350.116C172.909 349.593 172.45 348.98 172.119 348.276C171.799 347.561 171.639 346.799 171.639 345.988V344.82ZM168.167 344.34H175.911V345.428H168.167V344.34ZM177.735 343.268H179.063V351.988H177.735V343.268ZM178.695 346.948H181.191V348.052H178.695V346.948ZM174.455 352.388C175.437 352.388 176.279 352.495 176.983 352.708C177.698 352.911 178.247 353.209 178.631 353.604C179.015 353.999 179.207 354.479 179.207 355.044C179.207 355.609 179.015 356.089 178.631 356.484C178.247 356.879 177.698 357.183 176.983 357.396C176.279 357.609 175.437 357.716 174.455 357.716C173.474 357.716 172.626 357.609 171.911 357.396C171.197 357.183 170.647 356.879 170.263 356.484C169.879 356.089 169.687 355.609 169.687 355.044C169.687 354.479 169.879 353.999 170.263 353.604C170.647 353.209 171.197 352.911 171.911 352.708C172.626 352.495 173.474 352.388 174.455 352.388ZM174.455 353.444C173.741 353.444 173.122 353.508 172.599 353.636C172.087 353.764 171.693 353.945 171.415 354.18C171.138 354.415 170.999 354.703 170.999 355.044C170.999 355.385 171.138 355.679 171.415 355.924C171.693 356.159 172.087 356.34 172.599 356.468C173.122 356.596 173.741 356.66 174.455 356.66C175.17 356.66 175.783 356.596 176.295 356.468C176.807 356.34 177.202 356.159 177.479 355.924C177.757 355.679 177.895 355.385 177.895 355.044C177.895 354.703 177.757 354.415 177.479 354.18C177.202 353.945 176.807 353.764 176.295 353.636C175.783 353.508 175.17 353.444 174.455 353.444ZM186.706 349.876H199.81V350.98H186.706V349.876ZM192.562 350.356H193.874V352.564H192.562V350.356ZM192.53 353.236H193.666V353.684C193.666 354.228 193.522 354.729 193.234 355.188C192.946 355.636 192.541 356.036 192.018 356.388C191.496 356.729 190.898 357.007 190.226 357.22C189.554 357.444 188.84 357.599 188.082 357.684L187.65 356.66C188.312 356.596 188.936 356.479 189.522 356.308C190.109 356.137 190.626 355.919 191.074 355.652C191.522 355.385 191.874 355.087 192.13 354.756C192.397 354.415 192.53 354.057 192.53 353.684V353.236ZM192.77 353.236H193.89V353.684C193.89 354.079 194.018 354.441 194.274 354.772C194.541 355.103 194.898 355.401 195.346 355.668C195.805 355.924 196.328 356.137 196.914 356.308C197.501 356.479 198.12 356.596 198.77 356.66L198.354 357.684C197.597 357.599 196.882 357.444 196.21 357.22C195.538 357.007 194.941 356.735 194.418 356.404C193.906 356.063 193.501 355.663 193.202 355.204C192.914 354.745 192.77 354.239 192.77 353.684V353.236ZM193.234 343.492C194.28 343.492 195.181 343.593 195.938 343.796C196.706 343.999 197.293 344.303 197.698 344.708C198.114 345.103 198.322 345.583 198.322 346.148C198.322 346.703 198.114 347.177 197.698 347.572C197.293 347.967 196.706 348.271 195.938 348.484C195.181 348.697 194.28 348.804 193.234 348.804C192.189 348.804 191.282 348.697 190.514 348.484C189.757 348.271 189.17 347.967 188.754 347.572C188.349 347.177 188.146 346.703 188.146 346.148C188.146 345.583 188.349 345.103 188.754 344.708C189.17 344.303 189.757 343.999 190.514 343.796C191.282 343.593 192.189 343.492 193.234 343.492ZM193.234 344.5C192.466 344.5 191.805 344.569 191.25 344.708C190.696 344.836 190.264 345.023 189.954 345.268C189.656 345.503 189.506 345.796 189.506 346.148C189.506 346.489 189.656 346.783 189.954 347.028C190.264 347.263 190.696 347.444 191.25 347.572C191.805 347.7 192.466 347.764 193.234 347.764C194.013 347.764 194.68 347.7 195.234 347.572C195.789 347.444 196.216 347.263 196.514 347.028C196.813 346.783 196.962 346.489 196.962 346.148C196.962 345.796 196.813 345.503 196.514 345.268C196.216 345.023 195.789 344.836 195.234 344.708C194.68 344.569 194.013 344.5 193.234 344.5ZM211.969 343.268H213.297V357.748H211.969V343.268ZM207.729 344.836H209.041C209.041 345.881 208.913 346.889 208.657 347.86C208.412 348.831 208.022 349.753 207.489 350.628C206.956 351.492 206.262 352.297 205.409 353.044C204.556 353.791 203.521 354.457 202.305 355.044L201.601 353.972C202.998 353.3 204.15 352.516 205.057 351.62C205.964 350.724 206.636 349.727 207.073 348.628C207.51 347.519 207.729 346.324 207.729 345.044V344.836ZM202.273 344.836H208.289V345.908H202.273V344.836ZM226.72 343.268H228.032V357.748H226.72V343.268ZM223.344 349.076H227.312V350.18H223.344V349.076ZM222.08 344.836H223.376C223.376 345.86 223.258 346.857 223.024 347.828C222.8 348.788 222.432 349.7 221.92 350.564C221.418 351.428 220.752 352.233 219.92 352.98C219.088 353.727 218.069 354.399 216.864 354.996L216.128 353.956C217.184 353.444 218.085 352.868 218.832 352.228C219.589 351.588 220.208 350.895 220.688 350.148C221.168 349.391 221.52 348.591 221.744 347.748C221.968 346.895 222.08 345.993 222.08 345.044V344.836ZM216.768 344.836H222.768V345.908H216.768V344.836ZM241.631 349.044H244.287V350.148H241.631V349.044ZM240.655 343.268H241.983V357.732H240.655V343.268ZM231.439 344.692H232.751V353.652H231.439V344.692ZM231.439 352.964H232.591C233.647 352.964 234.729 352.916 235.839 352.82C236.959 352.724 238.116 352.553 239.311 352.308L239.47 353.428C238.233 353.673 237.049 353.844 235.919 353.94C234.799 354.025 233.689 354.068 232.591 354.068H231.439V352.964ZM253.578 344.388C254.292 344.388 254.922 344.596 255.466 345.012C256.01 345.417 256.436 345.999 256.746 346.756C257.055 347.513 257.21 348.404 257.21 349.428C257.21 350.452 257.055 351.343 256.746 352.1C256.436 352.857 256.01 353.444 255.466 353.86C254.922 354.276 254.292 354.484 253.578 354.484C252.874 354.484 252.244 354.276 251.69 353.86C251.146 353.444 250.719 352.857 250.41 352.1C250.1 351.343 249.946 350.452 249.946 349.428C249.946 348.404 250.1 347.513 250.41 346.756C250.719 345.999 251.146 345.417 251.69 345.012C252.244 344.596 252.874 344.388 253.578 344.388ZM253.578 345.572C253.119 345.572 252.708 345.732 252.346 346.052C251.994 346.361 251.716 346.809 251.514 347.396C251.311 347.972 251.21 348.649 251.21 349.428C251.21 350.207 251.311 350.889 251.514 351.476C251.716 352.052 251.994 352.5 252.346 352.82C252.708 353.14 253.124 353.3 253.594 353.3C254.052 353.3 254.458 353.14 254.81 352.82C255.172 352.5 255.45 352.052 255.642 351.476C255.844 350.889 255.946 350.207 255.946 349.428C255.946 348.649 255.844 347.972 255.642 347.396C255.45 346.809 255.172 346.361 254.81 346.052C254.458 345.732 254.047 345.572 253.578 345.572ZM259.53 343.268H260.858V357.748H259.53V343.268ZM260.554 349.044H263.226V350.164H260.554V349.044ZM268.488 343.892H269.592V344.772C269.592 345.561 269.416 346.292 269.064 346.964C268.723 347.625 268.243 348.196 267.624 348.676C267.006 349.145 266.291 349.503 265.48 349.748L264.824 348.708C265.56 348.505 266.2 348.212 266.744 347.828C267.299 347.433 267.726 346.975 268.024 346.452C268.334 345.929 268.488 345.369 268.488 344.772V343.892ZM268.744 343.892H269.848V344.772C269.848 345.327 269.998 345.844 270.296 346.324C270.595 346.804 271.011 347.22 271.544 347.572C272.088 347.924 272.718 348.185 273.432 348.356L272.824 349.412C272.003 349.188 271.283 348.863 270.664 348.436C270.056 347.999 269.582 347.471 269.24 346.852C268.91 346.233 268.744 345.54 268.744 344.772V343.892ZM268.6 351.348H269.928V357.3H268.6V351.348ZM275 343.284H276.312V357.748H275V343.284ZM264.6 352.148L264.424 351.028C265.342 351.028 266.334 351.023 267.4 351.012C268.467 350.991 269.566 350.948 270.696 350.884C271.827 350.809 272.915 350.697 273.96 350.548L274.056 351.508C272.979 351.7 271.88 351.844 270.76 351.94C269.64 352.025 268.558 352.084 267.512 352.116C266.467 352.137 265.496 352.148 264.6 352.148ZM283.047 349.476H284.375V352.356H283.047V349.476ZM289.687 343.284H291.015V352.436H289.687V343.284ZM279.255 350.116L279.095 349.06C279.98 349.049 280.946 349.039 281.991 349.028C283.047 349.007 284.124 348.964 285.223 348.9C286.332 348.825 287.399 348.713 288.423 348.564L288.519 349.524C287.474 349.695 286.402 349.823 285.303 349.908C284.204 349.993 283.138 350.052 282.103 350.084C281.079 350.105 280.13 350.116 279.255 350.116ZM286.775 350.596H290.071V351.556H286.775V350.596ZM283.799 343.62C284.876 343.62 285.735 343.823 286.375 344.228C287.026 344.633 287.351 345.188 287.351 345.892C287.351 346.596 287.026 347.151 286.375 347.556C285.735 347.951 284.876 348.148 283.799 348.148C282.732 348.148 281.874 347.951 281.223 347.556C280.572 347.151 280.247 346.596 280.247 345.892C280.247 345.188 280.572 344.633 281.223 344.228C281.874 343.823 282.732 343.62 283.799 343.62ZM283.799 344.58C283.095 344.58 282.53 344.697 282.103 344.932C281.687 345.167 281.479 345.487 281.479 345.892C281.479 346.297 281.687 346.617 282.103 346.852C282.53 347.076 283.095 347.188 283.799 347.188C284.492 347.188 285.047 347.076 285.463 346.852C285.89 346.617 286.103 346.297 286.103 345.892C286.103 345.487 285.89 345.167 285.463 344.932C285.047 344.697 284.492 344.58 283.799 344.58ZM282.775 352.948H283.799V353.204C283.799 353.833 283.671 354.441 283.415 355.028C283.159 355.604 282.78 356.111 282.279 356.548C281.788 356.996 281.191 357.337 280.487 357.572L279.863 356.58C280.471 356.388 280.988 356.116 281.415 355.764C281.852 355.412 282.188 355.017 282.423 354.58C282.658 354.132 282.775 353.673 282.775 353.204V352.948ZM283.079 352.948H284.039V353.204C284.039 353.641 284.135 354.089 284.327 354.548C284.519 354.996 284.807 355.412 285.191 355.796C285.575 356.169 286.055 356.468 286.631 356.692L286.071 357.7C285.388 357.433 284.823 357.06 284.375 356.58C283.938 356.1 283.612 355.567 283.399 354.98C283.186 354.383 283.079 353.791 283.079 353.204V352.948ZM288.119 352.948H289.095V353.204C289.095 353.791 288.983 354.383 288.759 354.98C288.546 355.567 288.215 356.1 287.767 356.58C287.33 357.06 286.764 357.433 286.071 357.7L285.543 356.692C286.108 356.468 286.578 356.164 286.951 355.78C287.335 355.396 287.623 354.98 287.815 354.532C288.018 354.073 288.119 353.631 288.119 353.204V352.948ZM288.391 352.948H289.415V353.204C289.415 353.684 289.527 354.148 289.751 354.596C289.986 355.044 290.322 355.439 290.759 355.78C291.196 356.121 291.719 356.388 292.327 356.58L291.703 357.572C290.999 357.337 290.396 357.001 289.895 356.564C289.404 356.127 289.031 355.62 288.775 355.044C288.519 354.468 288.391 353.855 288.391 353.204V352.948ZM294.726 350.628H295.814C296.699 350.628 297.494 350.617 298.198 350.596C298.912 350.564 299.579 350.516 300.198 350.452C300.827 350.388 301.472 350.292 302.134 350.164L302.278 351.252C301.606 351.369 300.944 351.465 300.294 351.54C299.643 351.604 298.955 351.652 298.23 351.684C297.515 351.705 296.71 351.716 295.814 351.716H294.726V350.628ZM294.726 344.468H301.334V345.556H296.038V350.964H294.726V344.468ZM304.47 343.284H305.798V353.844H304.47V343.284ZM300.406 347.284H304.758V348.356H300.406V347.284ZM296.534 356.436H306.182V357.524H296.534V356.436ZM296.534 353.044H297.862V357.044H296.534V353.044ZM320.481 346.884H323.697V347.988H320.481V346.884ZM323.345 343.268H324.673V351.732H323.345V343.268ZM315.281 352.452H324.673V357.556H315.281V352.452ZM323.377 353.508H316.593V356.468H323.377V353.508ZM316.449 344.644H317.537V345.812C317.537 346.687 317.366 347.513 317.025 348.292C316.694 349.06 316.225 349.732 315.617 350.308C315.009 350.873 314.305 351.305 313.505 351.604L312.817 350.548C313.35 350.356 313.835 350.1 314.273 349.78C314.721 349.46 315.11 349.092 315.441 348.676C315.771 348.249 316.022 347.796 316.193 347.316C316.363 346.825 316.449 346.324 316.449 345.812V344.644ZM316.705 344.644H317.793V345.812C317.793 346.431 317.937 347.033 318.225 347.62C318.513 348.196 318.923 348.713 319.457 349.172C319.99 349.62 320.603 349.972 321.297 350.228L320.625 351.284C319.835 350.996 319.147 350.58 318.561 350.036C317.974 349.481 317.515 348.841 317.185 348.116C316.865 347.38 316.705 346.612 316.705 345.812V344.644ZM313.233 344.196H320.961V345.284H313.233V344.196ZM327.488 350.884H340.56V351.956H327.488V350.884ZM329.168 356.34H339.104V357.428H329.168V356.34ZM329.168 353.236H330.496V356.66H329.168V353.236ZM334.016 343.764C335.05 343.764 335.946 343.881 336.704 344.116C337.472 344.34 338.064 344.671 338.48 345.108C338.896 345.535 339.104 346.047 339.104 346.644C339.104 347.241 338.896 347.759 338.48 348.196C338.064 348.633 337.472 348.969 336.704 349.204C335.946 349.428 335.05 349.54 334.016 349.54C332.981 349.54 332.08 349.428 331.312 349.204C330.554 348.969 329.968 348.633 329.552 348.196C329.136 347.759 328.928 347.241 328.928 346.644C328.928 346.047 329.136 345.535 329.552 345.108C329.968 344.671 330.554 344.34 331.312 344.116C332.08 343.881 332.981 343.764 334.016 343.764ZM334.016 344.836C333.269 344.836 332.613 344.911 332.048 345.06C331.493 345.199 331.061 345.407 330.752 345.684C330.442 345.951 330.288 346.271 330.288 346.644C330.288 347.017 330.442 347.343 330.752 347.62C331.061 347.887 331.493 348.095 332.048 348.244C332.613 348.383 333.269 348.452 334.016 348.452C334.784 348.452 335.445 348.383 336 348.244C336.554 348.095 336.981 347.887 337.28 347.62C337.589 347.343 337.744 347.017 337.744 346.644C337.744 346.271 337.589 345.951 337.28 345.684C336.981 345.407 336.554 345.199 336 345.06C335.445 344.911 334.784 344.836 334.016 344.836ZM345.598 345.22C346.686 345.22 347.556 345.519 348.206 346.116C348.868 346.713 349.198 347.529 349.198 348.564C349.198 349.641 348.857 350.452 348.174 350.996C347.492 351.54 346.585 351.812 345.454 351.812L345.39 353.076H343.806L343.726 350.564H344.254C345.289 350.564 346.078 350.425 346.622 350.148C347.177 349.871 347.454 349.343 347.454 348.564C347.454 347.999 347.289 347.556 346.958 347.236C346.638 346.916 346.19 346.756 345.614 346.756C345.038 346.756 344.585 346.911 344.254 347.22C343.924 347.529 343.758 347.961 343.758 348.516H342.046C342.046 347.876 342.19 347.305 342.478 346.804C342.766 346.303 343.177 345.913 343.71 345.636C344.254 345.359 344.884 345.22 345.598 345.22ZM344.574 356.612C344.244 356.612 343.966 356.5 343.742 356.276C343.518 356.052 343.406 355.775 343.406 355.444C343.406 355.113 343.518 354.836 343.742 354.612C343.966 354.388 344.244 354.276 344.574 354.276C344.894 354.276 345.166 354.388 345.39 354.612C345.614 354.836 345.726 355.113 345.726 355.444C345.726 355.775 345.614 356.052 345.39 356.276C345.166 356.5 344.894 356.612 344.574 356.612Z" fill="#2A2B2A"/>
<mask id="path-11-inside-3_436_1749" fill="white">
<path d="M104 359.5H484V397.5H104V359.5Z"/>
</mask>
<path d="M484 397.5V396.5H104V397.5V398.5H484V397.5Z" fill="#2A2B2B" mask="url(#path-11-inside-3_436_1749)"/>
<path d="M110.672 447.444H111.984V451.044H110.672V447.444ZM111.328 440.212C112.352 440.212 113.259 440.372 114.048 440.692C114.837 441.001 115.456 441.439 115.904 442.004C116.363 442.569 116.592 443.236 116.592 444.004C116.592 444.772 116.363 445.444 115.904 446.02C115.456 446.585 114.837 447.023 114.048 447.332C113.259 447.641 112.352 447.796 111.328 447.796C110.315 447.796 109.408 447.641 108.608 447.332C107.819 447.023 107.2 446.585 106.752 446.02C106.304 445.444 106.08 444.772 106.08 444.004C106.08 443.236 106.304 442.569 106.752 442.004C107.2 441.439 107.819 441.001 108.608 440.692C109.408 440.372 110.315 440.212 111.328 440.212ZM111.328 441.284C110.56 441.284 109.877 441.396 109.28 441.62C108.683 441.844 108.213 442.164 107.872 442.58C107.531 442.985 107.36 443.46 107.36 444.004C107.36 444.548 107.531 445.028 107.872 445.444C108.213 445.86 108.683 446.18 109.28 446.404C109.877 446.628 110.56 446.74 111.328 446.74C112.096 446.74 112.779 446.628 113.376 446.404C113.973 446.18 114.443 445.86 114.784 445.444C115.136 445.028 115.312 444.548 115.312 444.004C115.312 443.46 115.136 442.985 114.784 442.58C114.443 442.164 113.973 441.844 113.376 441.62C112.779 441.396 112.096 441.284 111.328 441.284ZM104.8 450.788H117.92V451.892H104.8V450.788ZM121.279 442.708H131.087V443.796H121.279V442.708ZM119.503 445.204H132.623V446.292H119.503V445.204ZM121.279 439.492H122.575V443.22H121.279V439.492ZM121.135 447.572H130.959V450.98H122.495V452.836H121.167V449.988H129.647V448.612H121.135V447.572ZM121.167 452.5H131.455V453.556H121.167V452.5ZM140.766 439.524C142.366 439.524 143.614 439.743 144.51 440.18C145.406 440.607 145.854 441.22 145.854 442.02C145.854 442.831 145.406 443.455 144.51 443.892C143.614 444.319 142.366 444.532 140.766 444.532C139.176 444.532 137.928 444.319 137.022 443.892C136.126 443.455 135.678 442.831 135.678 442.02C135.678 441.22 136.126 440.607 137.022 440.18C137.928 439.743 139.176 439.524 140.766 439.524ZM140.766 440.516C139.987 440.516 139.32 440.575 138.766 440.692C138.211 440.809 137.784 440.98 137.486 441.204C137.198 441.428 137.054 441.7 137.054 442.02C137.054 442.34 137.198 442.617 137.486 442.852C137.784 443.076 138.211 443.247 138.766 443.364C139.32 443.471 139.987 443.524 140.766 443.524C141.555 443.524 142.227 443.471 142.782 443.364C143.336 443.247 143.758 443.076 144.046 442.852C144.344 442.617 144.494 442.34 144.494 442.02C144.494 441.7 144.344 441.428 144.046 441.204C143.758 440.98 143.336 440.809 142.782 440.692C142.227 440.575 141.555 440.516 140.766 440.516ZM134.238 445.508H147.31V446.58H134.238V445.508ZM135.822 447.812H145.63V451.076H137.15V452.82H135.854V450.1H144.334V448.836H135.822V447.812ZM135.854 452.548H146.062V453.588H135.854V452.548ZM163.017 439.284H164.345V450.132H163.017V439.284ZM163.929 444.036H166.473V445.14H163.929V444.036ZM153.145 441.044H161.689V442.116H153.145V441.044ZM157.417 442.9C158.099 442.9 158.702 443.017 159.225 443.252C159.747 443.476 160.153 443.791 160.441 444.196C160.729 444.591 160.873 445.06 160.873 445.604C160.873 446.148 160.729 446.623 160.441 447.028C160.153 447.423 159.747 447.732 159.225 447.956C158.702 448.18 158.099 448.292 157.417 448.292C156.734 448.292 156.131 448.18 155.609 447.956C155.086 447.732 154.675 447.423 154.377 447.028C154.089 446.623 153.945 446.148 153.945 445.604C153.945 445.06 154.089 444.591 154.377 444.196C154.675 443.791 155.086 443.476 155.609 443.252C156.131 443.017 156.734 442.9 157.417 442.9ZM157.417 443.94C156.766 443.94 156.238 444.095 155.833 444.404C155.427 444.703 155.225 445.103 155.225 445.604C155.225 446.105 155.427 446.505 155.833 446.804C156.238 447.103 156.766 447.252 157.417 447.252C158.078 447.252 158.606 447.103 159.001 446.804C159.406 446.505 159.609 446.105 159.609 445.604C159.609 445.103 159.406 444.703 159.001 444.404C158.606 444.095 158.078 443.94 157.417 443.94ZM156.761 439.284H158.089V441.588H156.761V439.284ZM155.337 452.34H164.985V453.428H155.337V452.34ZM155.337 449.268H156.649V452.788H155.337V449.268ZM181.892 439.268H183.22V449.748H181.892V439.268ZM182.804 443.556H185.364V444.66H182.804V443.556ZM172.66 446.084H173.78C174.772 446.084 175.641 446.073 176.388 446.052C177.134 446.031 177.822 445.983 178.452 445.908C179.081 445.833 179.716 445.732 180.356 445.604L180.516 446.692C179.844 446.82 179.182 446.921 178.532 446.996C177.892 447.071 177.193 447.124 176.436 447.156C175.678 447.177 174.793 447.188 173.78 447.188H172.66V446.084ZM172.66 440.516H179.044V441.604H173.972V446.676H172.66V440.516ZM174.212 452.34H183.86V453.428H174.212V452.34ZM174.212 448.692H175.524V452.836H174.212V448.692ZM190.562 440.388C191.266 440.388 191.89 440.596 192.434 441.012C192.978 441.417 193.4 441.999 193.698 442.756C194.008 443.513 194.162 444.404 194.162 445.428C194.162 446.452 194.008 447.343 193.698 448.1C193.4 448.857 192.978 449.444 192.434 449.86C191.89 450.276 191.266 450.484 190.562 450.484C189.869 450.484 189.245 450.276 188.69 449.86C188.146 449.444 187.72 448.857 187.41 448.1C187.112 447.343 186.962 446.452 186.962 445.428C186.962 444.404 187.112 443.513 187.41 442.756C187.72 441.999 188.146 441.417 188.69 441.012C189.245 440.596 189.869 440.388 190.562 440.388ZM190.562 441.572C190.104 441.572 189.698 441.732 189.346 442.052C188.994 442.361 188.717 442.809 188.514 443.396C188.322 443.972 188.226 444.649 188.226 445.428C188.226 446.207 188.322 446.889 188.514 447.476C188.717 448.052 188.994 448.5 189.346 448.82C189.698 449.14 190.104 449.3 190.562 449.3C191.032 449.3 191.442 449.14 191.794 448.82C192.146 448.5 192.418 448.052 192.61 447.476C192.813 446.889 192.914 446.207 192.914 445.428C192.914 444.649 192.813 443.972 192.61 443.396C192.418 442.809 192.146 442.361 191.794 442.052C191.442 441.732 191.032 441.572 190.562 441.572ZM197.298 439.268H198.61V453.764H197.298V439.268ZM193.73 444.788H197.89V445.86H193.73V444.788ZM201.425 450.852H214.545V451.956H201.425V450.852ZM207.297 447.764H208.609V451.316H207.297V447.764ZM203.025 440.34H212.913V444.724H204.369V447.62H203.057V443.668H211.601V441.428H203.025V440.34ZM203.057 447.06H213.249V448.148H203.057V447.06ZM223.932 447.108H225.26V451.236H223.932V447.108ZM228.38 447.124H229.708V451.252H228.38V447.124ZM220.3 450.884H233.42V451.988H220.3V450.884ZM221.452 440.612H232.188V441.7H221.452V440.612ZM221.484 446.388H232.156V447.476H221.484V446.388ZM223.692 441.492H225.02V446.612H223.692V441.492ZM228.62 441.492H229.932V446.612H228.62V441.492ZM245.595 439.284H246.923V450.324H245.595V439.284ZM243.147 443.124H246.139V444.212H243.147V443.124ZM243.147 446.164H246.139V447.236H243.147V446.164ZM235.035 441.044H243.147V442.116H235.035V441.044ZM239.131 442.9C239.781 442.9 240.352 443.017 240.843 443.252C241.333 443.487 241.717 443.812 241.995 444.228C242.272 444.644 242.411 445.124 242.411 445.668C242.411 446.212 242.272 446.697 241.995 447.124C241.717 447.54 241.333 447.865 240.843 448.1C240.352 448.324 239.781 448.436 239.131 448.436C238.491 448.436 237.925 448.324 237.435 448.1C236.944 447.865 236.56 447.54 236.283 447.124C236.005 446.697 235.867 446.212 235.867 445.668C235.867 445.124 236.005 444.644 236.283 444.228C236.56 443.812 236.944 443.487 237.435 443.252C237.925 443.017 238.491 442.9 239.131 442.9ZM239.131 443.956C238.533 443.956 238.048 444.116 237.675 444.436C237.301 444.745 237.115 445.156 237.115 445.668C237.115 446.191 237.301 446.612 237.675 446.932C238.048 447.241 238.533 447.396 239.131 447.396C239.728 447.396 240.213 447.241 240.587 446.932C240.971 446.612 241.163 446.191 241.163 445.668C241.163 445.156 240.971 444.745 240.587 444.436C240.213 444.116 239.728 443.956 239.131 443.956ZM238.491 439.268H239.803V441.716H238.491V439.268ZM237.627 452.34H247.259V453.428H237.627V452.34ZM237.627 449.364H238.955V452.852H237.627V449.364ZM259.546 439.268H260.858V453.748H259.546V439.268ZM260.554 445.22H263.226V446.34H260.554V445.22ZM249.658 441.588H258.186V442.676H249.658V441.588ZM253.994 443.86C254.676 443.86 255.279 444.004 255.802 444.292C256.335 444.58 256.751 444.975 257.05 445.476C257.359 445.967 257.514 446.537 257.514 447.188C257.514 447.839 257.359 448.415 257.05 448.916C256.751 449.417 256.335 449.812 255.802 450.1C255.279 450.377 254.676 450.516 253.994 450.516C253.311 450.516 252.703 450.377 252.17 450.1C251.647 449.812 251.231 449.417 250.922 448.916C250.612 448.415 250.458 447.839 250.458 447.188C250.458 446.537 250.612 445.967 250.922 445.476C251.231 444.975 251.647 444.58 252.17 444.292C252.703 444.004 253.311 443.86 253.994 443.86ZM253.994 444.964C253.556 444.964 253.167 445.06 252.826 445.252C252.484 445.444 252.212 445.705 252.01 446.036C251.818 446.367 251.722 446.751 251.722 447.188C251.722 447.625 251.818 448.015 252.01 448.356C252.212 448.687 252.484 448.948 252.826 449.14C253.167 449.321 253.556 449.412 253.994 449.412C254.42 449.412 254.804 449.321 255.146 449.14C255.487 448.948 255.754 448.687 255.946 448.356C256.148 448.015 256.25 447.625 256.25 447.188C256.25 446.751 256.148 446.367 255.946 446.036C255.754 445.705 255.487 445.444 255.146 445.252C254.804 445.06 254.42 444.964 253.994 444.964ZM253.306 439.444H254.634V442.068H253.306V439.444ZM271.4 441.812H275.432V442.916H271.4V441.812ZM271.4 444.916H275.464V446.004H271.4V444.916ZM265.128 440.532H271.72V447.3H265.128V440.532ZM270.424 441.604H266.424V446.244H270.424V441.604ZM275.032 439.284H276.36V449.844H275.032V439.284ZM267.064 452.34H276.696V453.428H267.064V452.34ZM267.064 448.9H268.392V452.836H267.064V448.9ZM282.567 441.22C283.655 441.22 284.524 441.519 285.175 442.116C285.836 442.713 286.167 443.529 286.167 444.564C286.167 445.641 285.826 446.452 285.143 446.996C284.46 447.54 283.554 447.812 282.423 447.812L282.359 449.076H280.775L280.695 446.564H281.223C282.258 446.564 283.047 446.425 283.591 446.148C284.146 445.871 284.423 445.343 284.423 444.564C284.423 443.999 284.258 443.556 283.927 443.236C283.607 442.916 283.159 442.756 282.583 442.756C282.007 442.756 281.554 442.911 281.223 443.22C280.892 443.529 280.727 443.961 280.727 444.516H279.015C279.015 443.876 279.159 443.305 279.447 442.804C279.735 442.303 280.146 441.913 280.679 441.636C281.223 441.359 281.852 441.22 282.567 441.22ZM281.543 452.612C281.212 452.612 280.935 452.5 280.711 452.276C280.487 452.052 280.375 451.775 280.375 451.444C280.375 451.113 280.487 450.836 280.711 450.612C280.935 450.388 281.212 450.276 281.543 450.276C281.863 450.276 282.135 450.388 282.359 450.612C282.583 450.836 282.695 451.113 282.695 451.444C282.695 451.775 282.583 452.052 282.359 452.276C282.135 452.5 281.863 452.612 281.543 452.612Z" fill="#2A2B2A"/>
<mask id="path-14-inside-4_436_1749" fill="white">
<path d="M104 455.5H484V493.5H104V455.5Z"/>
</mask>
<path d="M484 493.5V492.5H104V493.5V494.5H484V493.5Z" fill="#2A2B2B" mask="url(#path-14-inside-4_436_1749)"/>
</g>
<defs>
<filter id="filter0_di_436_1749" x="0" y="0" width="588" height="633" filterUnits="userSpaceOnUse" color-interpolation-filters="sRGB">
<feFlood flood-opacity="0" result="BackgroundImageFix"/>
<feColorMatrix in="SourceAlpha" type="matrix" values="0 0 0 0 0 0 0 0 0 0 0 0 0 0 0 0 0 0 127 0" result="hardAlpha"/>
<feOffset dy="4"/>
<feGaussianBlur stdDeviation="2"/>
<feComposite in2="hardAlpha" operator="out"/>
<feColorMatrix type="matrix" values="0 0 0 0 0 0 0 0 0 0 0 0 0 0 0 0 0 0 0.25 0"/>
<feBlend mode="normal" in2="BackgroundImageFix" result="effect1_dropShadow_436_1749"/>
<feBlend mode="normal" in="SourceGraphic" in2="effect1_dropShadow_436_1749" result="shape"/>
<feColorMatrix in="SourceAlpha" type="matrix" values="0 0 0 0 0 0 0 0 0 0 0 0 0 0 0 0 0 0 127 0" result="hardAlpha"/>
<feOffset dy="4"/>
<feGaussianBlur stdDeviation="2"/>
<feComposite in2="hardAlpha" operator="arithmetic" k2="-1" k3="1"/>
<feColorMatrix type="matrix" values="0 0 0 0 0 0 0 0 0 0 0 0 0 0 0 0 0 0 0.25 0"/>
<feBlend mode="normal" in2="shape" result="effect2_innerShadow_436_1749"/>
</filter>
</defs>
</svg>
